<svg width="36" height="36" viewBox="0 0 36 36" fill="none" xmlns="http://www.w3.org/2000/svg">
<path d="M18.0016 3.6001C25.9553 3.6001 32.4016 10.0463 32.4016 18.0001C32.4016 25.9538 25.9553 32.4001 18.0016 32.4001C10.0478 32.4001 3.60156 25.9538 3.60156 18.0001C3.60156 10.0463 10.0478 3.6001 18.0016 3.6001Z" fill="#0052FF"/>
<path d="M18.0028 23.0625C15.2072 23.0625 12.9403 20.7984 12.9403 18C12.9403 15.2016 15.2072 12.9375 18.0028 12.9375C20.5087 12.9375 22.59 14.7656 22.9894 17.1562H28.0884C27.6581 11.9587 23.3072 7.875 18 7.875C12.4088 7.875 7.875 12.4087 7.875 18C7.875 23.5912 12.4088 28.125 18 28.125C23.3072 28.125 27.6581 24.0413 28.0884 18.8438H22.9866C22.5844 21.2344 20.5087 23.0625 18.0028 23.0625Z" fill="white"/>
</svg>
