<svg width="36" height="36" viewBox="0 0 36 36" fill="none" xmlns="http://www.w3.org/2000/svg">
<path d="M30.9734 4.01123L19.7305 12.3615L21.8096 7.43496L30.9734 4.01123Z" fill="#E2761B" stroke="#E2761B" stroke-linecap="round" stroke-linejoin="round"/>
<path d="M5.01847 4.01123L16.171 12.4406L14.1936 7.43496L5.01847 4.01123ZM26.9281 23.3672L23.9337 27.9547L30.3405 29.7174L32.1823 23.4689L26.9281 23.3672ZM3.83203 23.4689L5.66254 29.7174L12.0693 27.9547L9.07497 23.3672L3.83203 23.4689Z" fill="#E4761B" stroke="#E4761B" stroke-linecap="round" stroke-linejoin="round"/>
<path d="M11.7072 15.6158L9.92188 18.3164L16.2835 18.5988L16.0575 11.7627L11.7072 15.6158ZM24.2835 15.6158L19.8767 11.6836L19.7298 18.5988L26.0801 18.3164L24.2835 15.6158ZM12.0688 27.9548L15.888 26.0904L12.5885 23.5141L12.0688 27.9548ZM20.1027 26.0904L23.9332 27.9548L23.4021 23.5141L20.1027 26.0904Z" fill="#E4761B" stroke="#E4761B" stroke-linecap="round" stroke-linejoin="round"/>
<path d="M23.9308 27.9547L20.1003 26.0903L20.4054 28.5875L20.3715 29.6384L23.9308 27.9547ZM12.0664 27.9547L15.6257 29.6384L15.6031 28.5875L15.8856 26.0903L12.0664 27.9547Z" fill="#D7C1B3" stroke="#D7C1B3" stroke-linecap="round" stroke-linejoin="round"/>
<path d="M15.6825 21.8643L12.4961 20.9264L14.7447 19.8982L15.6825 21.8643ZM20.304 21.8643L21.2419 19.8982L23.5017 20.9264L20.304 21.8643Z" fill="#233447" stroke="#233447" stroke-linecap="round" stroke-linejoin="round"/>
<path d="M12.0686 27.9548L12.6109 23.3673L9.07422 23.4689L12.0686 27.9548ZM23.3906 23.3673L23.933 27.9548L26.9273 23.4689L23.3906 23.3673ZM26.0799 18.3164L19.7296 18.5989L20.3172 21.8644L21.255 19.8983L23.5149 20.9266L26.0799 18.3164ZM12.4979 20.9266L14.7578 19.8983L15.6844 21.8644L16.2833 18.5989L9.92168 18.3164L12.4979 20.9266Z" fill="#CD6116" stroke="#CD6116" stroke-linecap="round" stroke-linejoin="round"/>
<path d="M9.92188 18.3164L12.5885 23.5141L12.4981 20.9266L9.92188 18.3164ZM23.5151 20.9266L23.4021 23.5141L26.0801 18.3164L23.5151 20.9266ZM16.2835 18.5989L15.6846 21.8644L16.4303 25.7175L16.5998 20.6441L16.2835 18.5989ZM19.7298 18.5989L19.4247 20.6328L19.5603 25.7175L20.3174 21.8644L19.7298 18.5989Z" fill="#E4751F" stroke="#E4751F" stroke-linecap="round" stroke-linejoin="round"/>
<path d="M20.3153 21.8644L19.5582 25.7175L20.1006 26.0904L23.4 23.5141L23.513 20.9265L20.3153 21.8644ZM12.4961 20.9265L12.5865 23.5141L15.8859 26.0904L16.4283 25.7175L15.6825 21.8644L12.4961 20.9265Z" fill="#F6851B" stroke="#F6851B" stroke-linecap="round" stroke-linejoin="round"/>
<path d="M20.3715 29.6384L20.4054 28.5876L20.1229 28.339H15.863L15.6031 28.5876L15.6257 29.6384L12.0664 27.9548L13.3093 28.9718L15.8291 30.7232H20.1568L22.6879 28.9718L23.9308 27.9548L20.3715 29.6384Z" fill="#C0AD9E" stroke="#C0AD9E" stroke-linecap="round" stroke-linejoin="round"/>
<path d="M20.1026 26.0904L19.5603 25.7175H16.4303L15.888 26.0904L15.6055 28.5876L15.8654 28.339H20.1252L20.4077 28.5876L20.1026 26.0904Z" fill="#161616" stroke="#161616" stroke-linecap="round" stroke-linejoin="round"/>
<path d="M31.4469 12.9039L32.4073 8.29372L30.9723 4.01123L20.1022 12.079L24.283 15.6158L30.1926 17.3446L31.5034 15.8191L30.9384 15.4124L31.8423 14.5875L31.1418 14.0451L32.0457 13.3559L31.4469 12.9039ZM3.59375 8.29372L4.5542 12.9039L3.94403 13.3559L4.84799 14.0451L4.15872 14.5875L5.06268 15.4124L4.4977 15.8191L5.79714 17.3446L11.7067 15.6158L15.8875 12.079L5.01748 4.01123L3.59375 8.29372Z" fill="#763D16" stroke="#763D16" stroke-linecap="round" stroke-linejoin="round"/>
<path d="M30.1936 17.3447L24.284 15.6158L26.0806 18.3164L23.4027 23.5142L26.9281 23.469H32.1823L30.1936 17.3447ZM11.7077 15.6158L5.79813 17.3447L3.83203 23.469H9.07497L12.5891 23.5142L9.92243 18.3164L11.7077 15.6158ZM19.7303 18.5989L20.1032 12.0791L21.8207 7.43506H14.1936L15.8885 12.0791L16.284 18.5989L16.4196 20.6554L16.4309 25.7175H19.5608L19.5834 20.6554L19.7303 18.5989Z" fill="#F6851B" stroke="#F6851B" stroke-linecap="round" stroke-linejoin="round"/>
</svg>
