<svg width="32" height="32" viewBox="0 0 32 32" fill="none" xmlns="http://www.w3.org/2000/svg">
<path d="M32 6.92308C30.8 7.50769 29.6 7.70256 28.2 7.89744C29.6 7.11795 30.6 5.94872 31 4.38974C29.8 5.16923 28.4 5.55897 26.8 5.94872C25.6 4.77949 23.8 4 22 4C17.8 4 14.6 7.89744 15.6 11.7949C10.2 11.6 5.4 9.06667 2 5.16923C0.2 8.09231 1.2 11.7949 4 13.7436C3 13.7436 2 13.3538 1 12.9641C1 15.8872 3.2 18.6154 6.2 19.3949C5.2 19.5897 4.2 19.7846 3.2 19.5897C4 22.1231 6.4 24.0718 9.4 24.0718C7 25.8256 3.4 26.8 0 26.4103C3 28.1641 6.4 29.3333 10 29.3333C22.2 29.3333 29 19.3949 28.6 10.2359C30 9.45641 31.2 8.28718 32 6.92308Z" fill="white"/>
</svg>
