<svg width="24" height="24" viewBox="0 0 24 24" fill="none" xmlns="http://www.w3.org/2000/svg">
<rect width="24" height="24" rx="12" fill="url(#paint0_linear_2002_9224)"/>
<path d="M11.998 4L11.8906 4.36462V14.9441L11.998 15.0512L16.9087 12.1484L11.998 4Z" fill="#F0F0F0"/>
<path d="M11.9968 4L7.08594 12.1484L11.9968 15.0512V9.91619V4Z" fill="#D0D0D0"/>
<path d="M11.998 15.9809L11.9375 16.0547V19.8232L11.998 19.9998L16.9118 13.0796L11.998 15.9809Z" fill="#E0E0E0"/>
<path d="M11.9968 19.9998V15.9809L7.08594 13.0796L11.9968 19.9998Z" fill="#D0D0D0"/>
<path d="M12 15.051L16.9108 12.1482L12 9.91602V15.051Z" fill="white"/>
<path d="M7.08594 12.1482L11.9968 15.051V9.91602L7.08594 12.1482Z" fill="#D8D8D8"/>
<defs>
<linearGradient id="paint0_linear_2002_9224" x1="4.47035e-07" y1="24" x2="25.4573" y2="1.66075" gradientUnits="userSpaceOnUse">
<stop stop-color="#FF817D"/>
<stop offset="0.463542" stop-color="#8233FF"/>
<stop offset="0.630208" stop-color="#3857FD"/>
<stop offset="1" stop-color="#22DEF1"/>
</linearGradient>
</defs>
</svg>
