<?xml version="1.0" standalone="no"?>
<!DOCTYPE svg PUBLIC "-//W3C//DTD SVG 20010904//EN"
 "http://www.w3.org/TR/2001/REC-SVG-20010904/DTD/svg10.dtd">
<svg version="1.0" xmlns="http://www.w3.org/2000/svg"
 width="729.000000pt" height="729.000000pt" viewBox="0 0 729.000000 729.000000"
 preserveAspectRatio="xMidYMid meet">
<metadata>
Created by potrace 1.14, written by Peter Selinger 2001-2017
</metadata>
<g transform="translate(0.000000,729.000000) scale(0.100000,-0.100000)"
fill="#000000" stroke="none">
<path d="M2337 6334 c-1 -1 -38 -5 -82 -8 -44 -3 -89 -8 -100 -10 -22 -4 -77
-13 -140 -22 -22 -3 -43 -8 -46 -10 -3 -2 -19 -6 -36 -8 -107 -19 -367 -113
-505 -182 -382 -192 -736 -525 -944 -889 -44 -77 -124 -244 -124 -258 0 -7 -4
-17 -9 -22 -24 -27 -114 -341 -127 -445 -3 -24 -7 -47 -9 -50 -24 -39 -24
-609 1 -651 2 -4 6 -26 9 -49 3 -24 7 -46 9 -49 3 -4 7 -26 11 -49 8 -58 56
-217 96 -322 65 -170 232 -465 309 -547 42 -46 61 -34 226 131 85 84 154 162
154 171 0 10 -26 59 -59 109 -123 190 -188 348 -241 581 -28 123 -30 149 -35
310 -4 169 9 294 48 461 93 392 375 782 740 1022 72 48 254 143 322 168 85 32
129 45 220 68 157 39 238 48 470 51 99 1 196 5 215 9 110 25 194 131 191 244
-2 111 -81 214 -181 238 -28 6 -377 13 -383 8z"/>
<path d="M4573 6322 c-114 -33 -183 -122 -183 -237 0 -102 56 -186 149 -228
40 -18 69 -20 231 -22 166 -2 336 -12 350 -20 3 -2 26 -6 50 -10 55 -8 164
-37 245 -65 501 -172 905 -567 1083 -1060 32 -89 67 -219 77 -286 4 -21 9 -50
11 -64 10 -46 12 -334 4 -405 -31 -264 -123 -523 -258 -730 -65 -98 -73 -116
-67 -136 4 -10 74 -86 157 -169 160 -160 178 -170 218 -127 65 68 239 369 291
502 4 11 17 43 28 70 26 64 87 278 94 330 3 22 8 47 11 55 6 17 13 75 23 175
10 93 10 330 0 430 -55 580 -351 1127 -812 1500 -354 286 -794 465 -1235 501
-152 13 -417 10 -467 -4z"/>
<path d="M2706 5183 c-69 -21 -121 -56 -161 -111 -64 -86 -65 -100 -62 -541
l2 -396 29 -57 c43 -85 103 -134 195 -162 40 -12 91 -15 214 -13 151 3 166 5
219 29 68 32 126 87 159 154 l24 49 2 396 c2 433 1 450 -56 532 -31 46 -82 85
-146 114 -55 24 -346 29 -419 6z"/>
<path d="M4214 5190 c-104 -24 -198 -109 -229 -205 -15 -49 -17 -101 -17 -428
-1 -205 3 -388 7 -407 12 -57 51 -124 93 -162 84 -76 131 -88 341 -84 154 2
170 4 221 28 93 43 157 123 178 223 4 22 7 211 7 420 l-2 380 -25 55 c-31 69
-87 125 -158 158 -52 25 -65 27 -220 28 -91 1 -179 -1 -196 -6z"/>
<path d="M1892 3365 c-110 -28 -240 -88 -330 -152 -78 -55 -803 -776 -851
-846 -122 -179 -188 -461 -156 -667 36 -229 195 -476 384 -598 221 -143 527
-186 769 -106 80 26 204 92 272 143 36 27 154 139 263 249 193 194 198 200
186 226 -9 18 -20 26 -38 26 -117 2 -268 16 -381 36 -47 9 -100 18 -117 21
-30 5 -40 -1 -123 -80 -65 -62 -111 -96 -166 -124 -73 -35 -82 -37 -168 -37
-104 1 -170 22 -241 76 -110 84 -170 244 -144 386 22 116 44 143 426 525 197
197 374 368 393 381 191 126 436 69 559 -131 17 -28 37 -53 44 -55 24 -9 112
2 232 28 43 9 167 70 193 94 29 27 23 58 -27 158 -84 166 -202 287 -360 366
-49 25 -176 73 -214 80 -12 3 -47 10 -77 16 -86 17 -225 11 -328 -15z"/>
<path d="M4998 3361 c-176 -46 -311 -118 -418 -224 -90 -89 -200 -276 -200
-341 0 -59 208 -146 382 -159 63 -5 67 -2 122 81 91 136 263 203 415 162 109
-30 153 -67 524 -439 309 -309 359 -364 384 -416 37 -81 38 -87 37 -195 0 -83
-4 -102 -29 -154 -73 -149 -218 -233 -382 -220 -118 9 -208 58 -323 175 l-71
72 -72 -13 c-75 -13 -88 -15 -149 -24 -80 -12 -107 -15 -218 -21 -117 -7 -140
-14 -140 -45 0 -18 363 -388 444 -452 270 -214 638 -252 956 -101 186 89 363
285 436 483 49 135 66 303 43 425 -5 28 -12 62 -14 76 -17 97 -84 255 -144
343 -45 64 -776 792 -840 835 -250 169 -488 218 -743 152z"/>
<path d="M3588 3255 c-102 -26 -148 -77 -203 -225 -115 -309 -317 -510 -595
-593 -241 -72 -523 -69 -818 8 -52 14 -101 25 -109 25 -8 0 -89 -74 -179 -164
-209 -208 -210 -213 -46 -276 238 -92 513 -143 772 -143 92 0 269 11 280 18 3
2 30 6 60 10 30 4 58 9 61 11 3 2 21 6 40 9 114 20 323 111 448 194 116 77
264 216 334 315 13 17 16 15 49 -30 43 -58 163 -177 233 -232 168 -130 418
-237 622 -267 21 -4 45 -8 53 -10 64 -17 358 -23 484 -10 203 20 439 76 605
144 87 35 94 41 94 76 0 22 -34 61 -164 191 -104 104 -171 164 -184 164 -11 0
-60 -11 -110 -25 -137 -38 -255 -55 -408 -59 -332 -8 -590 82 -771 268 -64 66
-141 177 -179 259 -47 100 -67 147 -67 157 0 6 -11 33 -25 60 -50 99 -169 153
-277 125z"/>
</g>
</svg>
