<svg width="24" height="24" viewBox="0 0 24 24" fill="none" xmlns="http://www.w3.org/2000/svg">
<path d="M4.41519 18.9662C4.2939 18.9249 4.18869 18.8472 4.11425 18.7439C4.03981 18.6405 3.99986 18.5168 4 18.3899C4 15.6095 4.56452 13.3857 5.6788 11.7804C7.02447 9.83914 9.14882 8.79545 12.0002 8.66479V5.60838C12.0002 5.48921 12.0357 5.37268 12.102 5.27324C12.1684 5.1738 12.2629 5.09583 12.3737 5.04899C12.4845 5.00215 12.6067 4.98851 12.7253 5.00975C12.8438 5.031 12.9535 5.08619 13.0406 5.1685L19.81 11.5597C19.87 11.6165 19.9178 11.6848 19.9505 11.7604C19.9832 11.836 20 11.9174 20 11.9996C20 12.0818 19.9832 12.1631 19.9505 12.2387C19.9178 12.3143 19.87 12.3826 19.81 12.4394L13.0406 18.8306C12.9535 18.9129 12.8438 18.9681 12.7253 18.9894C12.6067 19.0106 12.4845 18.997 12.3737 18.9502C12.2629 18.9033 12.1684 18.8253 12.102 18.7259C12.0357 18.6265 12.0002 18.5099 12.0002 18.3908V15.3555C10.2688 15.4074 8.96174 15.685 7.92049 16.2174C6.79554 16.7928 5.97994 17.6522 5.10033 18.7657C5.02152 18.8656 4.91315 18.9387 4.79033 18.9748C4.66751 19.0109 4.53636 19.0082 4.41519 18.967V18.9662Z" fill="#35D2E2"/>
</svg>
