<svg width="73" height="56" viewBox="0 0 73 56" fill="none" xmlns="http://www.w3.org/2000/svg">
<path d="M45.0725 11.8262H42.7613C40.9752 11.8262 39.5273 13.2741 39.5273 15.0601V22.0061C39.5273 23.7922 40.9752 25.2401 42.7613 25.2401H45.0725C46.8585 25.2401 48.3064 23.7922 48.3064 22.0061V15.0601C48.3064 13.2741 46.8585 11.8262 45.0725 11.8262Z" fill="url(#paint0_linear_171_1707)"/>
<path d="M29.6213 11.8259H27.3101C25.5241 11.8259 24.0762 13.2738 24.0762 15.0599V22.0059C24.0762 23.7919 25.5241 25.2398 27.3101 25.2398H29.6213C31.4074 25.2398 32.8553 23.7919 32.8553 22.0059V15.0599C32.8553 13.2738 31.4074 11.8259 29.6213 11.8259Z" fill="url(#paint1_linear_171_1707)"/>
<path d="M8.84998 33.5701C6.75081 30.6645 5.48716 27.1146 5.44975 23.2696C5.3583 13.3058 13.6926 5.15439 23.6564 5.15439H25.7722C27.1439 5.15439 28.3452 4.11936 28.4325 2.74762C28.5281 1.24703 27.3393 0 25.8595 0H23.7229C10.9492 0 0.345233 10.2298 0.291195 23.0036C0.270411 28.3201 2.05782 33.2209 5.06732 37.1366C5.271 37.4026 5.6659 37.4234 5.90699 37.1865L8.79595 34.2975C8.99131 34.1021 9.0121 33.7945 8.84998 33.5659V33.5701Z" fill="url(#paint2_linear_171_1707)"/>
<path d="M46.4646 5.15439H48.6719C58.6274 5.15439 66.9658 13.3017 66.8785 23.2571C66.8453 27.1021 65.5858 30.6479 63.4866 33.5576C63.3245 33.7821 63.3453 34.0897 63.5407 34.2892L66.4296 37.174C66.6665 37.4109 67.0614 37.3901 67.2693 37.1241C70.2746 33.2084 72.0579 28.3076 72.0371 22.9952C71.9789 10.2215 61.3791 0 48.6054 0H46.5603C45.1885 0 43.9872 1.03504 43.8999 2.40677C43.8043 3.90736 44.9932 5.15439 46.473 5.15439H46.4646Z" fill="url(#paint3_linear_171_1707)"/>
<path d="M58.1115 43.4339L54.9856 40.3081C54.836 40.1584 54.6157 40.1085 54.4162 40.175C52.6869 40.732 50.8496 41.048 48.9375 41.048C43.5753 41.048 40.2956 38.7035 38.6121 33.6655C38.2588 32.6139 37.2778 31.9072 36.1679 31.9072C35.0581 31.9072 34.0771 32.6139 33.7238 33.6655C32.0403 38.6994 28.7606 41.048 23.3983 41.048C21.4904 41.048 19.6572 40.7362 17.9322 40.1792C17.7327 40.1127 17.5124 40.1667 17.3627 40.3122L14.2368 43.4381C13.9542 43.7208 14.0498 44.1988 14.4156 44.3526C17.1798 45.529 20.2101 46.1982 23.3983 46.1982C28.9934 46.1982 33.3247 44.1406 36.1679 40.1875C39.0112 44.1406 43.3467 46.1982 48.9375 46.1982C52.1341 46.1982 55.1685 45.529 57.9369 44.3443C58.3027 44.1863 58.3983 43.7083 58.1157 43.4298L58.1115 43.4339Z" fill="url(#paint4_linear_171_1707)"/>
<path d="M17.8991 48.1645C18.6972 48.3432 20.8421 48.7714 23.1574 48.7755C23.5315 48.7755 23.7144 49.2286 23.4484 49.4947L19.5285 53.4103C19.5285 53.4103 17.1259 55.8088 13.4721 55.8878C13.4721 55.8878 9.51488 56.0873 6.7922 53.3189C6.7922 53.3189 3.95312 50.7999 3.95312 46.7886C3.95312 46.7886 4.03626 42.7191 6.44719 40.2999C8.85811 37.8807 13.6717 33.0754 13.6717 33.0754C13.6717 33.0754 17.155 29.9038 21.3991 30.7185C25.4686 31.5 27.5095 33.7031 28.557 36.5131C28.6443 36.7459 28.5612 37.0077 28.3617 37.1532C27.8088 37.5564 26.5202 38.2839 24.2548 38.4293C24.0303 38.4418 23.8183 38.3296 23.7186 38.1301C23.4442 37.5772 22.7376 36.4549 21.3575 35.9685C19.4911 35.3076 17.8658 36.1888 17.1093 36.9204C16.3486 37.652 10.3171 43.7043 10.3171 43.7043C10.3171 43.7043 8.39256 45.525 9.41096 48.2352C10.6455 50.9288 13.0357 50.8248 13.9876 50.6627C13.9876 50.6627 15.484 50.5546 17.3546 48.3432C17.4876 48.1853 17.6996 48.1188 17.8991 48.1645Z" fill="url(#paint5_linear_171_1707)"/>
<path d="M54.4825 48.1645C53.6802 48.3432 51.5395 48.7714 49.2242 48.7755C48.8501 48.7755 48.6672 49.2286 48.9332 49.4947L52.853 53.4103C52.853 53.4103 55.2557 55.8088 58.9095 55.8878C58.9095 55.8878 62.8667 56.0873 65.5894 53.3189C65.5894 53.3189 68.4285 50.7999 68.4285 46.7886C68.4285 46.7886 68.3453 42.7191 65.9344 40.2999C63.5235 37.8807 58.7099 33.0754 58.7099 33.0754C58.7099 33.0754 55.2266 29.9038 50.9825 30.7185C46.913 31.5 44.872 33.7031 43.8245 36.5131C43.7372 36.7459 43.8204 37.0077 44.0199 37.1532C44.5728 37.5564 45.8572 38.2839 48.1226 38.4293C48.3471 38.4418 48.5633 38.3296 48.6672 38.1259C48.9415 37.5731 49.6482 36.4549 51.0241 35.9685C52.8905 35.3076 54.5158 36.1888 55.2723 36.9204C56.033 37.652 62.0644 43.7043 62.0644 43.7043C62.0644 43.7043 63.989 45.525 62.9706 48.2352C61.7361 50.9288 59.3459 50.8248 58.394 50.6627C58.394 50.6627 56.8976 50.5546 55.027 48.3432C54.894 48.1853 54.682 48.1188 54.4825 48.1645Z" fill="url(#paint6_linear_171_1707)"/>
<defs>
<linearGradient id="paint0_linear_171_1707" x1="43.9169" y1="0.889711" x2="43.9169" y2="58.1991" gradientUnits="userSpaceOnUse">
<stop stop-color="#35D2E2"/>
<stop offset="0.3" stop-color="#3B57EE"/>
<stop offset="0.7" stop-color="#752CE8"/>
<stop offset="1" stop-color="#EC8481"/>
</linearGradient>
<linearGradient id="paint1_linear_171_1707" x1="28.4657" y1="0.889467" x2="28.4657" y2="58.1988" gradientUnits="userSpaceOnUse">
<stop stop-color="#35D2E2"/>
<stop offset="0.3" stop-color="#3B57EE"/>
<stop offset="0.7" stop-color="#752CE8"/>
<stop offset="1" stop-color="#EC8481"/>
</linearGradient>
<linearGradient id="paint2_linear_171_1707" x1="14.366" y1="0.889549" x2="14.366" y2="58.1989" gradientUnits="userSpaceOnUse">
<stop stop-color="#35D2E2"/>
<stop offset="0.3" stop-color="#3B57EE"/>
<stop offset="0.7" stop-color="#752CE8"/>
<stop offset="1" stop-color="#EC8481"/>
</linearGradient>
<linearGradient id="paint3_linear_171_1707" x1="57.9623" y1="0.889549" x2="57.9623" y2="58.1989" gradientUnits="userSpaceOnUse">
<stop stop-color="#35D2E2"/>
<stop offset="0.3" stop-color="#3B57EE"/>
<stop offset="0.7" stop-color="#752CE8"/>
<stop offset="1" stop-color="#EC8481"/>
</linearGradient>
<linearGradient id="paint4_linear_171_1707" x1="36.1721" y1="0.889415" x2="36.1721" y2="58.1988" gradientUnits="userSpaceOnUse">
<stop stop-color="#35D2E2"/>
<stop offset="0.3" stop-color="#3B57EE"/>
<stop offset="0.7" stop-color="#752CE8"/>
<stop offset="1" stop-color="#EC8481"/>
</linearGradient>
<linearGradient id="paint5_linear_171_1707" x1="16.2738" y1="0.889562" x2="16.2738" y2="58.1989" gradientUnits="userSpaceOnUse">
<stop stop-color="#35D2E2"/>
<stop offset="0.3" stop-color="#3B57EE"/>
<stop offset="0.7" stop-color="#752CE8"/>
<stop offset="1" stop-color="#EC8481"/>
</linearGradient>
<linearGradient id="paint6_linear_171_1707" x1="56.112" y1="0.889562" x2="56.112" y2="58.1989" gradientUnits="userSpaceOnUse">
<stop stop-color="#35D2E2"/>
<stop offset="0.3" stop-color="#3B57EE"/>
<stop offset="0.7" stop-color="#752CE8"/>
<stop offset="1" stop-color="#EC8481"/>
</linearGradient>
</defs>
</svg>
