<svg width="174" height="56" viewBox="0 0 174 56" fill="none" xmlns="http://www.w3.org/2000/svg">
<path d="M45.0715 11.8259H42.7603C40.9743 11.8259 39.5264 13.2738 39.5264 15.0599V22.0059C39.5264 23.7919 40.9743 25.2398 42.7603 25.2398H45.0715C46.8576 25.2398 48.3055 23.7919 48.3055 22.0059V15.0599C48.3055 13.2738 46.8576 11.8259 45.0715 11.8259Z" fill="url(#paint0_linear_407_760)"/>
<path d="M29.6208 11.8259H27.3096C25.5236 11.8259 24.0757 13.2738 24.0757 15.0599V22.0059C24.0757 23.7919 25.5236 25.2398 27.3096 25.2398H29.6208C31.4069 25.2398 32.8548 23.7919 32.8548 22.0059V15.0599C32.8548 13.2738 31.4069 11.8259 29.6208 11.8259Z" fill="url(#paint1_linear_407_760)"/>
<path d="M8.8495 33.5701C6.75033 30.6645 5.48667 27.1146 5.44926 23.2696C5.35781 13.3058 13.6921 5.15439 23.6559 5.15439H25.7717C27.1434 5.15439 28.3447 4.11936 28.432 2.74762C28.5276 1.24703 27.3388 0 25.859 0H23.7224C10.9487 0 0.344745 10.2298 0.290707 23.0036C0.269923 28.3201 2.05733 33.2209 5.06683 37.1366C5.27052 37.4026 5.66541 37.4234 5.9065 37.1865L8.79546 34.2975C8.99083 34.1021 9.01161 33.7945 8.8495 33.5659V33.5701Z" fill="url(#paint2_linear_407_760)"/>
<path d="M46.4642 5.15439H48.6714C58.6269 5.15439 66.9653 13.3017 66.8781 23.2571C66.8448 27.1021 65.5853 30.6479 63.4861 33.5576C63.324 33.7821 63.3448 34.0897 63.5402 34.2892L66.4291 37.174C66.6661 37.4109 67.061 37.3901 67.2688 37.1241C70.2741 33.2084 72.0574 28.3076 72.0366 22.9952C71.9784 10.2215 61.3786 0 48.6049 0H46.5598C45.188 0 43.9867 1.03504 43.8994 2.40677C43.8038 3.90736 44.9927 5.15439 46.4725 5.15439H46.4642Z" fill="url(#paint3_linear_407_760)"/>
<path d="M58.1115 43.4342L54.9856 40.3083C54.836 40.1587 54.6157 40.1088 54.4162 40.1753C52.6869 40.7323 50.8496 41.0482 48.9375 41.0482C43.5753 41.0482 40.2956 38.7038 38.6121 33.6658C38.2588 32.6141 37.2778 31.9075 36.1679 31.9075C35.0581 31.9075 34.0771 32.6141 33.7238 33.6658C32.0403 38.6996 28.7606 41.0482 23.3983 41.0482C21.4904 41.0482 19.6572 40.7365 17.9322 40.1794C17.7327 40.1129 17.5124 40.167 17.3627 40.3125L14.2368 43.4383C13.9542 43.721 14.0498 44.199 14.4156 44.3528C17.1798 45.5292 20.2101 46.1984 23.3983 46.1984C28.9934 46.1984 33.3247 44.1408 36.1679 40.1878C39.0112 44.1408 43.3467 46.1984 48.9375 46.1984C52.1341 46.1984 55.1685 45.5292 57.9369 44.3445C58.3027 44.1866 58.3983 43.7085 58.1157 43.43L58.1115 43.4342Z" fill="url(#paint4_linear_407_760)"/>
<path d="M17.8986 48.1645C18.6967 48.3432 20.8416 48.7714 23.1569 48.7755C23.531 48.7755 23.7139 49.2286 23.4479 49.4947L19.5281 53.4103C19.5281 53.4103 17.1254 55.8088 13.4716 55.8878C13.4716 55.8878 9.5144 56.0873 6.79171 53.3189C6.79171 53.3189 3.95264 50.7999 3.95264 46.7886C3.95264 46.7886 4.03577 42.7191 6.4467 40.2999C8.85763 37.8807 13.6712 33.0754 13.6712 33.0754C13.6712 33.0754 17.1545 29.9038 21.3986 30.7185C25.4681 31.5 27.509 33.7031 28.5566 36.5131C28.6438 36.7459 28.5607 37.0077 28.3612 37.1532C27.8083 37.5564 26.5197 38.2839 24.2543 38.4293C24.0298 38.4418 23.8178 38.3296 23.7181 38.1301C23.4437 37.5772 22.7371 36.4549 21.357 35.9685C19.4906 35.3076 17.8653 36.1888 17.1088 36.9204C16.3481 37.652 10.3167 43.7043 10.3167 43.7043C10.3167 43.7043 8.39207 45.525 9.41048 48.2352C10.645 50.9288 13.0352 50.8248 13.9871 50.6627C13.9871 50.6627 15.4835 50.5546 17.3541 48.3432C17.4871 48.1853 17.6991 48.1188 17.8986 48.1645Z" fill="url(#paint5_linear_407_760)"/>
<path d="M54.4825 48.1645C53.6802 48.3432 51.5395 48.7714 49.2242 48.7755C48.8501 48.7755 48.6672 49.2286 48.9332 49.4947L52.853 53.4103C52.853 53.4103 55.2557 55.8088 58.9095 55.8878C58.9095 55.8878 62.8667 56.0873 65.5894 53.3189C65.5894 53.3189 68.4285 50.7999 68.4285 46.7886C68.4285 46.7886 68.3453 42.7191 65.9344 40.2999C63.5235 37.8807 58.7099 33.0754 58.7099 33.0754C58.7099 33.0754 55.2266 29.9038 50.9825 30.7185C46.913 31.5 44.872 33.7031 43.8245 36.5131C43.7372 36.7459 43.8204 37.0077 44.0199 37.1532C44.5728 37.5564 45.8572 38.2839 48.1226 38.4293C48.3471 38.4418 48.5633 38.3296 48.6672 38.1259C48.9415 37.5731 49.6482 36.4549 51.0241 35.9685C52.8905 35.3076 54.5158 36.1888 55.2723 36.9204C56.033 37.652 62.0644 43.7043 62.0644 43.7043C62.0644 43.7043 63.989 45.525 62.9706 48.2352C61.7361 50.9288 59.3459 50.8248 58.394 50.6627C58.394 50.6627 56.8976 50.5546 55.027 48.3432C54.894 48.1853 54.682 48.1188 54.4825 48.1645Z" fill="url(#paint6_linear_407_760)"/>
<path d="M89.5625 12.8486H96.0512C96.4752 12.8486 96.8202 12.5036 96.8202 12.0796V10.7453C96.8202 10.3213 96.4752 9.97632 96.0512 9.97632H89.5625C85.6302 9.97632 82.3755 13.1729 82.3048 17.1052C82.2715 19.0173 83.0114 20.8421 84.3832 22.243C85.7882 23.6729 87.7335 24.4918 89.7205 24.4918H96.0471C96.4711 24.4918 96.8161 24.1467 96.8161 23.7228V22.3884C96.8161 21.9644 96.4711 21.6194 96.0471 21.6194H89.6914C87.2763 21.6194 85.2935 19.7905 85.1771 17.4585C85.1148 16.2447 85.5429 15.0933 86.3826 14.2121C87.2222 13.3308 88.3487 12.8445 89.5625 12.8445V12.8486Z" fill="#070123"/>
<path d="M117.313 9.98047H115.979C115.555 9.98047 115.21 10.3255 115.21 10.7495V14.9935C115.21 15.0642 115.152 15.1266 115.081 15.1266H106.568C106.497 15.1266 106.439 15.0684 106.439 14.9935V10.7495C106.439 10.3255 106.094 9.98047 105.67 9.98047H104.336C103.912 9.98047 103.567 10.3255 103.567 10.7495V23.7269C103.567 24.1509 103.912 24.4959 104.336 24.4959H105.67C106.094 24.4959 106.439 24.1509 106.439 23.7269V18.1277C106.439 18.0571 106.497 17.9989 106.568 17.9989H115.081C115.152 17.9989 115.21 18.0571 115.21 18.1277V23.7269C115.21 24.1509 115.555 24.4959 115.979 24.4959H117.313C117.737 24.4959 118.082 24.1509 118.082 23.7269V10.7495C118.082 10.3255 117.737 9.98047 117.313 9.98047Z" fill="#070123"/>
<path d="M139.157 23.3735L132.643 10.5956C132.565 10.4377 132.402 10.3379 132.228 10.3379C132.053 10.3379 131.891 10.4377 131.812 10.5956L125.294 23.3735C125.17 23.6146 125.182 23.8931 125.323 24.1217C125.465 24.3504 125.71 24.4917 125.98 24.4917H127.468C127.759 24.4917 128.021 24.3296 128.15 24.0719L132.111 16.3153C132.145 16.253 132.203 16.2447 132.228 16.2447C132.253 16.2447 132.311 16.253 132.344 16.3153L136.306 24.0719C136.439 24.3296 136.7 24.4917 136.987 24.4917H138.475C138.746 24.4917 138.991 24.3545 139.132 24.1217C139.274 23.8931 139.282 23.6105 139.161 23.3735H139.157Z" fill="#070123"/>
<path d="M146.856 9.98047H148.19C148.614 9.98047 148.959 10.3255 148.959 10.7495V23.7269C148.959 24.1509 148.614 24.4959 148.19 24.4959H146.86C146.436 24.4959 146.091 24.1509 146.091 23.7269V10.7495C146.091 10.3255 146.436 9.98047 146.86 9.98047H146.856Z" fill="#070123"/>
<path d="M169.456 9.99709L168.121 9.98462H168.117C167.693 9.98462 167.348 10.3296 167.348 10.7536V18.5725C167.348 18.6556 167.282 18.7055 167.215 18.7055C167.186 18.7055 167.161 18.6972 167.136 18.6764L158.507 12.0214L156.457 10.446C156.374 10.3837 156.275 10.3463 156.175 10.3463C155.917 10.3463 155.705 10.5583 155.705 10.816V23.7435C155.705 24.1675 156.05 24.5125 156.474 24.5125H157.808C158.232 24.5125 158.577 24.1675 158.577 23.7435V15.9828C158.577 15.9371 158.598 15.908 158.615 15.8914C158.64 15.8665 158.673 15.854 158.706 15.854C158.735 15.854 158.76 15.8623 158.785 15.8831L167.415 22.5381L169.464 24.1135C169.547 24.1758 169.647 24.2091 169.747 24.2091C170.004 24.2091 170.216 23.9971 170.216 23.7394V10.7661C170.216 10.3463 169.876 10.0012 169.456 9.99709Z" fill="#070123"/>
<path d="M117.097 31.8576C117.018 31.6996 116.856 31.5999 116.681 31.5999C116.507 31.5999 116.344 31.6996 116.265 31.8576L109.752 44.6355C109.627 44.8766 109.64 45.1551 109.781 45.3837C109.922 45.6123 110.168 45.7495 110.438 45.7495H111.926C112.217 45.7495 112.479 45.5874 112.608 45.3297L116.569 37.5731C116.602 37.5108 116.66 37.5025 116.685 37.5025C116.71 37.5025 116.768 37.5108 116.802 37.5731L120.763 45.3297C120.896 45.5874 121.158 45.7495 121.445 45.7495H122.933C123.203 45.7495 123.448 45.6123 123.59 45.3837C123.731 45.1551 123.739 44.8724 123.619 44.6355L117.101 31.8576H117.097Z" fill="#070123"/>
<path d="M107.773 31.2424H106.285C105.994 31.2424 105.732 31.4004 105.603 31.6623L101.642 39.4188C101.609 39.4811 101.551 39.4895 101.526 39.4895C101.501 39.4895 101.443 39.4811 101.409 39.4188L98.5411 33.7947C98.4621 33.6367 98.3 33.5411 98.1254 33.5411C97.9508 33.5411 97.7887 33.6409 97.7097 33.7947L94.8416 39.4188C94.8083 39.4811 94.7501 39.4895 94.7252 39.4895C94.7002 39.4895 94.642 39.4811 94.6088 39.4188L90.6474 31.6623C90.5144 31.4045 90.2525 31.2424 89.9657 31.2424H88.4775C88.2074 31.2424 87.9621 31.3796 87.8208 31.6082C87.6794 31.8369 87.6711 32.1195 87.7917 32.3606L94.3095 45.1385C94.3885 45.2965 94.5506 45.3921 94.7252 45.3921C94.8998 45.3921 95.0619 45.2923 95.1408 45.1385L98.009 39.5102C98.0423 39.4479 98.1005 39.4396 98.1254 39.4396C98.1503 39.4396 98.2085 39.4479 98.2418 39.5102L101.11 45.1385C101.189 45.2965 101.351 45.3921 101.526 45.3921C101.7 45.3921 101.862 45.2923 101.941 45.1385L108.455 32.3606C108.576 32.1195 108.567 31.841 108.426 31.6082C108.285 31.3796 108.039 31.2424 107.769 31.2424H107.773Z" fill="#070123"/>
<path d="M141.597 38.8743C143.01 38.2258 143.921 36.7959 143.921 35.2412C143.921 34.1854 143.509 33.1795 142.757 32.4105C142.004 31.6581 141.007 31.2466 139.943 31.2466H131.592C131.168 31.2466 130.823 31.5916 130.823 32.0156V44.993C130.823 45.417 131.168 45.762 131.592 45.762H132.926C133.35 45.762 133.695 45.417 133.695 44.993V39.3731C133.695 39.3024 133.753 39.2442 133.824 39.2442H136.056C136.879 39.2442 137.627 39.6682 138.06 40.379L140.599 45.3463C140.732 45.6041 140.994 45.7662 141.281 45.7662H142.769C143.04 45.7662 143.285 45.629 143.426 45.4004C143.567 45.1718 143.576 44.8891 143.455 44.6522L140.766 39.3273C140.741 39.2775 140.753 39.2359 140.766 39.2151C140.782 39.1777 140.82 39.1486 140.861 39.1403C141.115 39.0821 141.364 38.999 141.597 38.8867V38.8743ZM141.073 35.2412C141.073 35.6819 140.811 36.0851 140.404 36.2596C140.259 36.3303 140.105 36.3677 139.947 36.3677L133.828 36.3885C133.757 36.3885 133.695 36.3303 133.695 36.2555V34.2436C133.695 34.1729 133.753 34.1148 133.824 34.1148H139.943C140.363 34.1148 140.62 34.3101 140.732 34.4307C140.832 34.5304 141.069 34.8131 141.069 35.2454L141.073 35.2412Z" fill="#070123"/>
<path d="M164.434 42.8648H156.595C156.52 42.8648 156.487 42.8149 156.478 42.7899C156.466 42.7692 156.449 42.711 156.491 42.6528L164.734 31.9948C164.846 31.8535 164.863 31.6623 164.784 31.5002C164.705 31.338 164.543 31.2383 164.364 31.2383H151.44C151.016 31.2383 150.671 31.5833 150.671 32.0073V33.3416C150.671 33.7656 151.016 34.1106 151.44 34.1106H159.243C159.317 34.1106 159.351 34.1605 159.359 34.1854C159.372 34.2062 159.388 34.2644 159.347 34.3226L151.104 45.0013C150.996 45.1427 150.975 45.3339 151.054 45.496C151.133 45.6581 151.295 45.7579 151.474 45.7579L164.439 45.7413C164.863 45.7413 165.203 45.3962 165.203 44.9722V43.6379C165.203 43.2139 164.858 42.8689 164.434 42.8689V42.8648Z" fill="#070123"/>
<defs>
<linearGradient id="paint0_linear_407_760" x1="43.9159" y1="0.889467" x2="43.9159" y2="58.1988" gradientUnits="userSpaceOnUse">
<stop stop-color="#35D2E2"/>
<stop offset="0.3" stop-color="#3B57EE"/>
<stop offset="0.7" stop-color="#752CE8"/>
<stop offset="1" stop-color="#EC8481"/>
</linearGradient>
<linearGradient id="paint1_linear_407_760" x1="28.4652" y1="0.889467" x2="28.4652" y2="58.1988" gradientUnits="userSpaceOnUse">
<stop stop-color="#35D2E2"/>
<stop offset="0.3" stop-color="#3B57EE"/>
<stop offset="0.7" stop-color="#752CE8"/>
<stop offset="1" stop-color="#EC8481"/>
</linearGradient>
<linearGradient id="paint2_linear_407_760" x1="14.3655" y1="0.889549" x2="14.3655" y2="58.1989" gradientUnits="userSpaceOnUse">
<stop stop-color="#35D2E2"/>
<stop offset="0.3" stop-color="#3B57EE"/>
<stop offset="0.7" stop-color="#752CE8"/>
<stop offset="1" stop-color="#EC8481"/>
</linearGradient>
<linearGradient id="paint3_linear_407_760" x1="57.9618" y1="0.889549" x2="57.9618" y2="58.1989" gradientUnits="userSpaceOnUse">
<stop stop-color="#35D2E2"/>
<stop offset="0.3" stop-color="#3B57EE"/>
<stop offset="0.7" stop-color="#752CE8"/>
<stop offset="1" stop-color="#EC8481"/>
</linearGradient>
<linearGradient id="paint4_linear_407_760" x1="36.1721" y1="0.889659" x2="36.1721" y2="58.199" gradientUnits="userSpaceOnUse">
<stop stop-color="#35D2E2"/>
<stop offset="0.3" stop-color="#3B57EE"/>
<stop offset="0.7" stop-color="#752CE8"/>
<stop offset="1" stop-color="#EC8481"/>
</linearGradient>
<linearGradient id="paint5_linear_407_760" x1="16.2733" y1="0.889562" x2="16.2733" y2="58.1989" gradientUnits="userSpaceOnUse">
<stop stop-color="#35D2E2"/>
<stop offset="0.3" stop-color="#3B57EE"/>
<stop offset="0.7" stop-color="#752CE8"/>
<stop offset="1" stop-color="#EC8481"/>
</linearGradient>
<linearGradient id="paint6_linear_407_760" x1="56.112" y1="0.889562" x2="56.112" y2="58.1989" gradientUnits="userSpaceOnUse">
<stop stop-color="#35D2E2"/>
<stop offset="0.3" stop-color="#3B57EE"/>
<stop offset="0.7" stop-color="#752CE8"/>
<stop offset="1" stop-color="#EC8481"/>
</linearGradient>
</defs>
</svg>
