<svg width="89" height="37" viewBox="0 0 89 37" fill="none" xmlns="http://www.w3.org/2000/svg">
<path d="M7.5625 3.84865H14.0512C14.4752 3.84865 14.8202 3.50364 14.8202 3.07965V1.74532C14.8202 1.32133 14.4752 0.976318 14.0512 0.976318H7.5625C3.6302 0.976318 0.37545 4.17288 0.304785 8.10518C0.271531 10.0173 1.01144 11.8421 2.38317 13.243C3.78816 14.6729 5.73353 15.4918 7.72046 15.4918H14.0471C14.4711 15.4918 14.8161 15.1467 14.8161 14.7228V13.3884C14.8161 12.9644 14.4711 12.6194 14.0471 12.6194H7.69136C5.27628 12.6194 3.2935 10.7905 3.17711 8.4585C3.11476 7.24473 3.54291 6.0933 4.38258 5.21207C5.22224 4.33083 6.34873 3.84449 7.5625 3.84449V3.84865Z" fill="#070123"/>
<path d="M35.3128 0.980469H33.9785C33.5545 0.980469 33.2095 1.32548 33.2095 1.74947V5.99353C33.2095 6.0642 33.1513 6.12655 33.0807 6.12655H24.5676C24.4969 6.12655 24.4387 6.06835 24.4387 5.99353V1.74947C24.4387 1.32548 24.0937 0.980469 23.6697 0.980469H22.3354C21.9114 0.980469 21.5664 1.32548 21.5664 1.74947V14.7269C21.5664 15.1509 21.9114 15.4959 22.3354 15.4959H23.6697C24.0937 15.4959 24.4387 15.1509 24.4387 14.7269V9.12773C24.4387 9.05707 24.4969 8.99887 24.5676 8.99887H33.0807C33.1513 8.99887 33.2095 9.05707 33.2095 9.12773V14.7269C33.2095 15.1509 33.5545 15.4959 33.9785 15.4959H35.3128C35.7368 15.4959 36.0818 15.1509 36.0818 14.7269V1.74947C36.0818 1.32548 35.7368 0.980469 35.3128 0.980469Z" fill="#070123"/>
<path d="M57.1567 14.3735L50.643 1.59561C50.564 1.43765 50.4019 1.33789 50.2273 1.33789C50.0527 1.33789 49.8906 1.43765 49.8116 1.59561L43.2938 14.3735C43.1691 14.6146 43.1816 14.8931 43.3229 15.1217C43.4643 15.3504 43.7095 15.4917 43.9797 15.4917H45.4678C45.7588 15.4917 46.0207 15.3296 46.1495 15.0719L50.1109 7.31532C50.1442 7.25297 50.2024 7.24466 50.2273 7.24466C50.2523 7.24466 50.3105 7.25297 50.3437 7.31532L54.3051 15.0719C54.4381 15.3296 54.7 15.4917 54.9868 15.4917H56.4749C56.7451 15.4917 56.9904 15.3545 57.1317 15.1217C57.2731 14.8931 57.2814 14.6105 57.1608 14.3735H57.1567Z" fill="#070123"/>
<path d="M64.8557 0.980469H66.19C66.614 0.980469 66.959 1.32548 66.959 1.74947V14.7269C66.959 15.1509 66.614 15.4959 66.19 15.4959H64.8598C64.4358 15.4959 64.0908 15.1509 64.0908 14.7269V1.74947C64.0908 1.32548 64.4358 0.980469 64.8598 0.980469H64.8557Z" fill="#070123"/>
<path d="M87.4557 0.997089L86.1213 0.984619H86.1172C85.6932 0.984619 85.3482 1.32963 85.3482 1.75362V9.57251C85.3482 9.65564 85.2817 9.70552 85.2152 9.70552C85.1861 9.70552 85.1611 9.69721 85.1362 9.67643L76.5067 3.02144L74.4575 1.44602C74.3743 1.38367 74.2746 1.34626 74.1748 1.34626C73.9171 1.34626 73.7051 1.55825 73.7051 1.81597V14.7435C73.7051 15.1675 74.0501 15.5125 74.4741 15.5125H75.8084C76.2324 15.5125 76.5774 15.1675 76.5774 14.7435V6.98284C76.5774 6.93712 76.5982 6.90802 76.6148 6.89139C76.6398 6.86645 76.673 6.85398 76.7063 6.85398C76.7354 6.85398 76.7603 6.86229 76.7852 6.88308L85.4147 13.5381L87.464 15.1135C87.5471 15.1758 87.6469 15.2091 87.7466 15.2091C88.0044 15.2091 88.2164 14.9971 88.2164 14.7394V1.76609C88.2164 1.34626 87.8755 1.00125 87.4557 0.997089Z" fill="#070123"/>
<path d="M35.0968 22.8576C35.0179 22.6996 34.8558 22.5999 34.6812 22.5999C34.5066 22.5999 34.3445 22.6996 34.2655 22.8576L27.7518 35.6355C27.6271 35.8766 27.6396 36.1551 27.7809 36.3837C27.9223 36.6123 28.1675 36.7495 28.4377 36.7495H29.9258C30.2168 36.7495 30.4787 36.5874 30.6075 36.3297L34.5689 28.5731C34.6022 28.5108 34.6604 28.5025 34.6853 28.5025C34.7103 28.5025 34.7685 28.5108 34.8017 28.5731L38.7631 36.3297C38.8961 36.5874 39.158 36.7495 39.4448 36.7495H40.933C41.2031 36.7495 41.4484 36.6123 41.5897 36.3837C41.7311 36.1551 41.7394 35.8724 41.6188 35.6355L35.101 22.8576H35.0968Z" fill="#070123"/>
<path d="M25.7738 22.2422H24.2856C23.9947 22.2422 23.7328 22.4001 23.6039 22.662L19.6425 30.4186C19.6093 30.4809 19.5511 30.4892 19.5261 30.4892C19.5012 30.4892 19.443 30.4809 19.4097 30.4186L16.5416 24.7944C16.4626 24.6365 16.3005 24.5409 16.1259 24.5409C15.9513 24.5409 15.7892 24.6406 15.7102 24.7944L12.842 30.4186C12.8088 30.4809 12.7506 30.4892 12.7257 30.4892C12.7007 30.4892 12.6425 30.4809 12.6093 30.4186L8.64786 22.662C8.51485 22.4043 8.25297 22.2422 7.96615 22.2422H6.47803C6.20784 22.2422 5.96259 22.3794 5.82126 22.608C5.67993 22.8366 5.67162 23.1193 5.79216 23.3604L12.31 36.1383C12.389 36.2962 12.5511 36.3918 12.7257 36.3918C12.9002 36.3918 13.0624 36.2921 13.1413 36.1383L16.0095 30.51C16.0428 30.4477 16.101 30.4393 16.1259 30.4393C16.1508 30.4393 16.209 30.4477 16.2423 30.51L19.1105 36.1383C19.1894 36.2962 19.3515 36.3918 19.5261 36.3918C19.7007 36.3918 19.8628 36.2921 19.9418 36.1383L26.4555 23.3604C26.576 23.1193 26.5677 22.8408 26.4264 22.608C26.285 22.3794 26.0398 22.2422 25.7696 22.2422H25.7738Z" fill="#070123"/>
<path d="M59.5966 29.8743C61.0099 29.2258 61.9202 27.7959 61.9202 26.2412C61.9202 25.1854 61.5087 24.1795 60.7563 23.4105C60.004 22.6581 59.0064 22.2466 57.9422 22.2466H49.5913C49.1673 22.2466 48.8223 22.5916 48.8223 23.0156V35.993C48.8223 36.417 49.1673 36.762 49.5913 36.762H50.9256C51.3496 36.762 51.6946 36.417 51.6946 35.993V30.3731C51.6946 30.3024 51.7528 30.2442 51.8235 30.2442H54.0556C54.8787 30.2442 55.6269 30.6682 56.0592 31.379L58.599 36.3463C58.732 36.6041 58.9939 36.7662 59.2807 36.7662H60.7688C61.039 36.7662 61.2843 36.629 61.4256 36.4004C61.5669 36.1718 61.5752 35.8891 61.4547 35.6522L58.7653 30.3273C58.7403 30.2775 58.7528 30.2359 58.7653 30.2151C58.7819 30.1777 58.8193 30.1486 58.8609 30.1403C59.1144 30.0821 59.3638 29.999 59.5966 29.8867V29.8743ZM59.0729 26.2412C59.0729 26.6819 58.811 27.0851 58.4036 27.2596C58.2581 27.3303 58.1043 27.3677 57.9464 27.3677L51.8276 27.3885C51.7569 27.3885 51.6946 27.3303 51.6946 27.2555V25.2436C51.6946 25.1729 51.7528 25.1148 51.8235 25.1148H57.9422C58.3621 25.1148 58.6198 25.3101 58.732 25.4307C58.8318 25.5304 59.0687 25.8131 59.0687 26.2454L59.0729 26.2412Z" fill="#070123"/>
<path d="M82.434 33.8648H74.5943C74.5195 33.8648 74.4862 33.8149 74.4779 33.7899C74.4654 33.7692 74.4488 33.711 74.4904 33.6528L82.7333 22.9948C82.8455 22.8535 82.8621 22.6623 82.7831 22.5002C82.7042 22.338 82.542 22.2383 82.3633 22.2383H69.4399C69.0159 22.2383 68.6709 22.5833 68.6709 23.0073V24.3416C68.6709 24.7656 69.0159 25.1106 69.4399 25.1106H77.2422C77.317 25.1106 77.3502 25.1605 77.3585 25.1854C77.371 25.2062 77.3876 25.2644 77.3461 25.3226L69.1032 36.0013C68.9951 36.1427 68.9743 36.3339 69.0533 36.496C69.1323 36.6581 69.2944 36.7579 69.4732 36.7579L82.4381 36.7413C82.8621 36.7413 83.203 36.3962 83.203 35.9722V34.6379C83.203 34.2139 82.858 33.8689 82.434 33.8689V33.8648Z" fill="#070123"/>
</svg>
