<svg width="32" height="32" viewBox="0 0 32 32" fill="none" xmlns="http://www.w3.org/2000/svg">
<path d="M28.0022 15.9598C28.0022 16.4557 27.8402 16.8504 27.5432 17.1979C26.9425 17.903 26.3452 18.6148 25.7378 19.3165C25.4273 19.6741 25.2654 20.0823 25.2316 20.5546C25.1641 21.4723 25.0933 22.3933 25.0123 23.3109C24.9245 24.2893 24.2226 24.9505 23.2406 25.0146C22.3025 25.0787 21.3677 25.1596 20.433 25.2406C20.028 25.2744 19.6804 25.4397 19.37 25.7062C18.6579 26.3168 17.9425 26.9241 17.2237 27.5313C16.4611 28.1757 15.5331 28.1622 14.7738 27.5077C14.0584 26.8937 13.3362 26.2831 12.6141 25.6724C12.3239 25.4262 11.9864 25.2777 11.6051 25.244C10.6703 25.163 9.73556 25.0753 8.79743 25.0213C7.76143 24.9606 7.04602 24.2454 6.98528 23.2097C6.92791 22.2786 6.84355 21.3508 6.76256 20.4197C6.72881 20.0149 6.55671 19.6674 6.29349 19.3604C5.68269 18.6485 5.07527 17.9333 4.46784 17.2148C3.8368 16.4692 3.84692 15.5279 4.48134 14.7891C5.09551 14.0739 5.70631 13.3519 6.31711 12.6334C6.57358 12.3331 6.72881 11.989 6.76256 11.5977C6.84355 10.6632 6.92791 9.72867 6.98528 8.7908C7.04939 7.75847 7.76818 7.05338 8.80755 6.98928C9.79968 6.92856 10.7918 6.82735 11.7806 6.72951C12.064 6.70252 12.3171 6.5642 12.5365 6.38203C13.2856 5.75116 14.0314 5.12029 14.7772 4.48605C15.5263 3.84506 16.4645 3.84506 17.217 4.48267C17.9358 5.09667 18.6546 5.70393 19.3734 6.31793C19.6771 6.5777 20.028 6.73288 20.4262 6.76662C21.3677 6.84421 22.3092 6.91843 23.2507 6.99265C24.0168 7.05338 24.5837 7.40761 24.8773 8.13294C24.9549 8.32524 24.9954 8.54452 25.0123 8.75369C25.0966 9.69493 25.1641 10.6362 25.2417 11.5774C25.2755 11.9823 25.4375 12.3331 25.7041 12.6401C26.3149 13.3519 26.9189 14.0705 27.5297 14.7824C27.8334 15.1332 27.9988 15.5313 28.0022 15.9598ZM11.7671 16.1959C11.8345 16.2499 11.8885 16.2836 11.9324 16.3275C12.9414 17.3362 13.9504 18.3449 14.9594 19.3536C15.1146 19.5088 15.1146 19.5088 15.2699 19.3536C16.7277 17.8962 18.1821 16.4354 19.6399 14.978C19.8323 14.7857 20.0348 14.6036 20.2541 14.3978C19.8559 14.0031 19.4847 13.6421 19.1169 13.2811C18.9583 13.1259 18.9583 13.1259 18.8064 13.2777C17.7806 14.3033 16.7581 15.3255 15.7322 16.3545C15.5297 16.5569 15.3374 16.7661 15.1416 16.9718C15.1146 16.9786 15.0876 16.9853 15.0573 16.9921C15.0201 16.928 14.9932 16.8538 14.9425 16.8032C14.352 16.2094 13.7581 15.619 13.1641 15.0286C13.1135 14.978 13.0663 14.8937 12.9752 14.9848C12.5837 15.3829 12.1889 15.7742 11.7671 16.1959Z" fill="#35D2E2"/>
</svg>
