<svg width="24" height="24" viewBox="0 0 24 24" fill="none" xmlns="http://www.w3.org/2000/svg">
<path d="M7.5 12C7.5 11.8011 7.57902 11.6103 7.71967 11.4697C7.86032 11.329 8.05109 11.25 8.25 11.25H15V6.375C15 4.875 13.416 3.75 12 3.75H4.875C4.17905 3.75079 3.51183 4.02761 3.01972 4.51972C2.52761 5.01183 2.25079 5.67905 2.25 6.375V17.625C2.25079 18.3209 2.52761 18.9882 3.01972 19.4803C3.51183 19.9724 4.17905 20.2492 4.875 20.25H12.375C13.071 20.2495 13.7384 19.9727 14.2306 19.4806C14.7227 18.9884 14.9995 18.321 15 17.625V12.75H8.25C8.05109 12.75 7.86032 12.671 7.71967 12.5303C7.57902 12.3897 7.5 12.1989 7.5 12Z" fill="#F2F2F2"/>
<path d="M21.53 11.472L17.78 7.72204C17.6378 7.58956 17.4498 7.51744 17.2555 7.52087C17.0612 7.5243 16.8758 7.60301 16.7384 7.74042C16.601 7.87784 16.5223 8.06322 16.5188 8.25752C16.5154 8.45182 16.5875 8.63987 16.72 8.78204L19.19 11.252H15V12.752H19.19L16.72 15.222C16.61 15.3257 16.534 15.4601 16.5018 15.6077C16.4697 15.7553 16.4829 15.9092 16.5398 16.0492C16.5967 16.1892 16.6946 16.3086 16.8206 16.392C16.9467 16.4753 17.0949 16.5185 17.246 16.516C17.3461 16.5147 17.445 16.4932 17.5367 16.4531C17.6284 16.4129 17.7111 16.3547 17.78 16.282L21.53 12.532C21.6705 12.3914 21.7493 12.2008 21.7493 12.002C21.7493 11.8033 21.6705 11.6127 21.53 11.472Z" fill="#F2F2F2"/>
</svg>
