<svg width="24" height="24" viewBox="0 0 24 24" fill="none" xmlns="http://www.w3.org/2000/svg">
<path d="M17.6227 6.75C17.4387 9.228 15.5597 11.25 13.4977 11.25C11.4347 11.25 9.55266 9.229 9.37266 6.75C9.18466 4.172 11.0127 2.25 13.4977 2.25C15.9817 2.25 17.8097 4.219 17.6227 6.75Z" stroke="#3B57EE" stroke-width="2" stroke-linecap="round" stroke-linejoin="round"/>
<path d="M13.5001 14.25C9.42215 14.25 5.28315 16.5 4.51715 20.747C4.42415 21.259 4.71515 21.75 5.25115 21.75H21.7511C22.2871 21.75 22.5761 21.259 22.4841 20.747C21.7181 16.5 17.5791 14.25 13.5001 14.25V14.25Z" stroke="#3B57EE" stroke-width="2" stroke-linecap="round" stroke-linejoin="round"/>
<path d="M4.125 8.25V13.5" stroke="#3B57EE" stroke-width="2" stroke-linecap="round" stroke-linejoin="round"/>
<path d="M6.75 10.875H1.5" stroke="#3B57EE" stroke-width="2" stroke-linecap="round" stroke-linejoin="round"/>
</svg>
