<svg width="24" height="24" viewBox="0 0 24 24" fill="none" xmlns="http://www.w3.org/2000/svg">
<g clip-path="url(#clip0_940_8411)">
<path d="M23.1928 7.36508C23.1401 6.16957 22.9467 5.34766 22.6697 4.63547C22.384 3.87949 21.9444 3.20267 21.3684 2.64002C20.8056 2.06862 20.1242 1.62462 19.3768 1.34338C18.6604 1.06643 17.8426 0.873106 16.6469 0.820395C15.4422 0.763221 15.0598 0.75 12.0044 0.75C8.94899 0.75 8.56655 0.763221 7.36634 0.815931C6.1706 0.868642 5.34854 1.06214 4.63638 1.33892C3.88009 1.62462 3.20314 2.06416 2.64038 2.64002C2.06887 3.20267 1.62496 3.88396 1.34349 4.63118C1.0665 5.34766 0.873129 6.1651 0.820409 7.36062C0.763223 8.56506 0.75 8.94743 0.75 12.0022C0.75 15.057 0.763223 15.4394 0.815944 16.6394C0.868664 17.8349 1.0622 18.6568 1.3392 19.369C1.62496 20.125 2.06887 20.8018 2.64038 21.3644C3.20314 21.9358 3.88455 22.3798 4.63192 22.6611C5.34854 22.938 6.16614 23.1314 7.36205 23.1841C8.56209 23.2369 8.9447 23.25 12.0001 23.25C15.0555 23.25 15.4379 23.2369 16.6381 23.1841C17.8339 23.1314 18.6559 22.938 19.3681 22.6611C20.8805 22.0765 22.0762 20.8809 22.661 19.369C22.9378 18.6525 23.1313 17.8349 23.1841 16.6394C23.2368 15.4394 23.25 15.057 23.25 12.0022C23.25 8.94743 23.2455 8.56506 23.1928 7.36508ZM21.1663 16.5515C21.1178 17.6503 20.9332 18.2437 20.7793 18.6393C20.4012 19.6195 19.6231 20.3975 18.6427 20.7755C18.247 20.9294 17.6493 21.1139 16.5545 21.1622C15.3675 21.2151 15.0115 21.2281 12.0088 21.2281C9.00618 21.2281 8.64572 21.2151 7.46303 21.1622C6.36397 21.1139 5.77047 20.9294 5.37481 20.7755C4.88693 20.5952 4.44284 20.3095 4.08239 19.9359C3.70871 19.5711 3.42295 19.1315 3.24263 18.6438C3.08877 18.2482 2.90416 17.6503 2.8559 16.5559C2.80301 15.3692 2.78996 15.0131 2.78996 12.011C2.78996 9.00889 2.80301 8.6485 2.8559 7.46621C2.90416 6.36736 3.08877 5.77398 3.24263 5.37839C3.42295 4.89044 3.70871 4.4466 4.08685 4.08604C4.4516 3.71243 4.89123 3.42673 5.37928 3.24662C5.77494 3.09278 6.3729 2.90821 7.46749 2.85979C8.65448 2.80708 9.01064 2.79386 12.0131 2.79386C15.0203 2.79386 15.3763 2.80708 16.559 2.85979C17.658 2.90821 18.2515 3.09278 18.6472 3.24662C19.135 3.42673 19.5791 3.71243 19.9396 4.08604C20.3133 4.4509 20.599 4.89044 20.7793 5.37839C20.9332 5.77398 21.1178 6.37165 21.1663 7.46621C21.219 8.65297 21.2322 9.00889 21.2322 12.011C21.2322 15.0131 21.219 15.3647 21.1663 16.5515Z" fill="#3B57EE"/>
<path d="M12.0417 6.22217C8.85071 6.22217 6.26172 8.81098 6.26172 12.0021C6.26172 15.1932 8.85071 17.782 12.0417 17.782C15.2328 17.782 17.8216 15.1932 17.8216 12.0021C17.8216 8.81098 15.2328 6.22217 12.0417 6.22217ZM12.0417 15.7514C9.97153 15.7514 8.29235 14.0724 8.29235 12.0021C8.29235 9.93181 9.97153 8.2528 12.0417 8.2528C14.112 8.2528 15.791 9.93181 15.791 12.0021C15.791 14.0724 14.112 15.7514 12.0417 15.7514Z" fill="#3B57EE"/>
<path d="M19.4001 5.99364C19.4001 6.7388 18.7959 7.34299 18.0505 7.34299C17.3054 7.34299 16.7012 6.7388 16.7012 5.99364C16.7012 5.24831 17.3054 4.64429 18.0505 4.64429C18.7959 4.64429 19.4001 5.24831 19.4001 5.99364Z" fill="#3B57EE"/>
</g>
<defs>
<clipPath id="clip0_940_8411">
<rect width="24" height="24" fill="white"/>
</clipPath>
</defs>
</svg>
