<svg width="24" height="24" viewBox="0 0 24 24" fill="none" xmlns="http://www.w3.org/2000/svg">
<g clip-path="url(#clip0_1528_13433)">
<rect width="24" height="24" rx="8" fill="white"/>
<path d="M7.09951 21.8495L2.94441 22.247L3.34171 18.0907L17.2003 4.18104L21.0104 7.99109L7.09951 21.8495Z" fill="#3B57EE"/>
<path d="M21.5747 7.41862L17.7675 3.61148L19.2914 2.15611C19.5248 1.92131 19.9318 1.84079 20.3356 1.91212C20.5343 1.94655 20.738 2.02007 20.9352 2.12843C21.1323 2.23679 21.3188 2.37783 21.484 2.54341L22.6457 3.70508C22.8105 3.87001 22.9509 4.05613 23.0588 4.25273C23.1666 4.44932 23.2398 4.65249 23.274 4.85055C23.3458 5.25686 23.2649 5.6614 23.0303 5.89598L21.5747 7.41862Z" fill="#3B57EE"/>
</g>
<defs>
<clipPath id="clip0_1528_13433">
<rect width="24" height="24" rx="8" fill="white"/>
</clipPath>
</defs>
</svg>
