<svg width="24" height="24" viewBox="0 0 24 24" fill="none" xmlns="http://www.w3.org/2000/svg">
<path d="M12.0003 8.24999C11.2587 8.24999 10.5336 8.46993 9.91695 8.88198C9.30026 9.29404 8.81962 9.87971 8.53579 10.5649C8.25196 11.2502 8.1777 12.0042 8.32239 12.7316C8.46709 13.459 8.82424 14.1272 9.34869 14.6516C9.87313 15.1761 10.5413 15.5332 11.2687 15.6779C11.9962 15.8226 12.7502 15.7484 13.4354 15.4645C14.1206 15.1807 14.7063 14.7001 15.1183 14.0834C15.5304 13.4667 15.7503 12.7417 15.7503 12C15.7474 11.0063 15.3514 10.0542 14.6488 9.35155C13.9461 8.64892 12.994 8.2529 12.0003 8.24999ZM20.0943 12C20.0923 12.35 20.0673 12.7 20.0183 13.047L22.3003 14.834C22.3998 14.9161 22.4668 15.0309 22.4893 15.1579C22.5119 15.2848 22.4885 15.4157 22.4233 15.527L20.2643 19.254C20.1986 19.3643 20.0961 19.4479 19.9749 19.4902C19.8536 19.5324 19.7214 19.5306 19.6013 19.485L16.9183 18.407C16.3595 18.8375 15.7479 19.1947 15.0983 19.47L14.6973 22.32C14.6745 22.4474 14.6082 22.563 14.5097 22.647C14.4113 22.7311 14.2868 22.7784 14.1573 22.781H9.84034C9.713 22.7787 9.59021 22.7332 9.4921 22.652C9.39399 22.5708 9.32638 22.4587 9.30034 22.334L8.90034 19.485C8.24913 19.2131 7.63707 18.8556 7.08034 18.422L4.39634 19.5C4.27644 19.5459 4.14419 19.548 4.02289 19.5059C3.9016 19.4638 3.79906 19.3803 3.73334 19.27L1.57434 15.542C1.50948 15.4308 1.48625 15.3002 1.50877 15.1734C1.5313 15.0467 1.59813 14.932 1.69734 14.85L3.98034 13.063C3.9316 12.7107 3.90587 12.3556 3.90334 12C3.90534 11.65 3.93034 11.3 3.98034 10.953L1.69734 9.16599C1.59788 9.0839 1.53089 8.96909 1.50836 8.84212C1.48582 8.71515 1.50921 8.5843 1.57434 8.47299L3.73434 4.74599C3.80001 4.6359 3.90233 4.55243 4.02336 4.51019C4.14439 4.46796 4.27643 4.46966 4.39634 4.51499L7.08034 5.59299C7.63922 5.16254 8.25084 4.80531 8.90034 4.52999L9.30034 1.67999C9.3232 1.55258 9.38949 1.43702 9.48794 1.35298C9.58639 1.26893 9.71092 1.22158 9.84034 1.21899H14.1583C14.2855 1.22142 14.4081 1.26682 14.5061 1.34781C14.6042 1.42879 14.6719 1.54059 14.6983 1.66499L15.0983 4.51499C15.7513 4.78599 16.3643 5.14499 16.9213 5.57799L19.6023 4.49999C19.7223 4.4543 19.8544 4.45232 19.9757 4.49437C20.0969 4.53643 20.1995 4.61986 20.2653 4.72999L22.4253 8.45799C22.4904 8.56941 22.5136 8.70033 22.4909 8.82731C22.4681 8.95429 22.401 9.06904 22.3013 9.15099L20.0193 10.938C20.0673 11.29 20.0933 11.645 20.0953 12H20.0943Z" fill="#F2F2F2"/>
</svg>
