<svg width="24" height="24" viewBox="0 0 24 24" fill="none" xmlns="http://www.w3.org/2000/svg">
<g clip-path="url(#clip0_439_2699)">
<path d="M4.923 8.4791C6.08159 8.5091 7.10344 8.93659 7.93535 9.79158C8.04551 9.90408 8.11388 9.91533 8.25064 9.83283C10.4881 8.49785 12.7255 7.16662 14.9667 5.84289C15.1072 5.76039 15.1338 5.68914 15.0844 5.53165C14.2373 3.02668 15.905 0.386727 18.5526 0.0379825C21.2307 -0.314512 23.5593 1.8342 23.3884 4.50041C23.2174 7.15912 20.5583 9.00784 17.9676 8.26535C17.2003 8.04786 16.5507 7.64286 16.0113 7.06537C15.9164 6.96412 15.8518 6.94912 15.7264 7.02412C13.489 8.3591 11.2516 9.69033 9.01037 11.0141C8.88122 11.0928 8.83943 11.1528 8.89641 11.3066C9.16992 12.064 9.25349 12.8403 9.01037 13.624C8.94579 13.8303 9.01417 13.9128 9.19651 14.0028C11.3048 15.0602 13.4092 16.1252 15.5137 17.194C15.6543 17.2652 15.7264 17.2465 15.829 17.1265C17.5536 15.0565 20.6267 15.034 22.4007 17.0702C23.8632 18.7502 23.6846 21.3976 22.0132 22.8789C21.1053 23.6814 20.0417 24.0676 18.8261 23.9814C16.9534 23.8501 15.4605 22.5676 15.0009 20.8614C14.8071 20.1452 14.7958 19.4289 15.0161 18.7164C15.0579 18.5852 15.0351 18.5177 14.9059 18.4539C12.7635 17.3777 10.6248 16.294 8.48995 15.2102C8.3532 15.1427 8.30002 15.199 8.22785 15.289C7.66564 15.9902 6.95909 16.489 6.08539 16.7327C4.6267 17.1415 3.28577 16.879 2.13477 15.9152C0.322806 14.4078 0.0948856 11.8953 1.55737 10.0503C2.32091 9.08659 3.62385 8.4716 4.923 8.4791Z" fill="#3B57EE"/>
</g>
<defs>
<clipPath id="clip0_439_2699">
<rect width="24" height="24" fill="white"/>
</clipPath>
</defs>
</svg>
