<svg width="174" height="56" viewBox="0 0 174 56" fill="none" xmlns="http://www.w3.org/2000/svg">
<path d="M45.0686 11.8259H42.7574C40.9713 11.8259 39.5234 13.2738 39.5234 15.0599V22.0059C39.5234 23.7919 40.9713 25.2398 42.7574 25.2398H45.0686C46.8546 25.2398 48.3025 23.7919 48.3025 22.0059V15.0599C48.3025 13.2738 46.8546 11.8259 45.0686 11.8259Z" fill="url(#paint0_linear_1402_7312)"/>
<path d="M29.6194 11.8259H27.3082C25.5221 11.8259 24.0742 13.2738 24.0742 15.0599V22.0059C24.0742 23.7919 25.5221 25.2398 27.3082 25.2398H29.6194C31.4054 25.2398 32.8533 23.7919 32.8533 22.0059V15.0599C32.8533 13.2738 31.4054 11.8259 29.6194 11.8259Z" fill="url(#paint1_linear_1402_7312)"/>
<path d="M8.84803 33.5701C6.74886 30.6645 5.4852 27.1146 5.44779 23.2696C5.35634 13.3058 13.6907 5.15439 23.6544 5.15439H25.7702C27.142 5.15439 28.3433 4.11936 28.4306 2.74762C28.5262 1.24703 27.3373 0 25.8575 0H23.721C10.9472 0 0.34328 10.2298 0.289242 23.0036C0.268458 28.3201 2.05587 33.2209 5.06537 37.1366C5.26905 37.4026 5.66394 37.4234 5.90504 37.1865L8.79399 34.2975C8.98936 34.1021 9.01015 33.7945 8.84803 33.5659V33.5701Z" fill="url(#paint2_linear_1402_7312)"/>
<path d="M46.4607 5.15439H48.668C58.6234 5.15439 66.9619 13.3017 66.8746 23.2571C66.8414 27.1021 65.5819 30.6479 63.4827 33.5576C63.3206 33.7821 63.3414 34.0897 63.5368 34.2892L66.4257 37.174C66.6626 37.4109 67.0575 37.3901 67.2654 37.1241C70.2707 33.2084 72.054 28.3076 72.0332 22.9952C71.975 10.2215 61.3752 0 48.6015 0H46.5563C45.1846 0 43.9833 1.03504 43.896 2.40677C43.8004 3.90736 44.9892 5.15439 46.4691 5.15439H46.4607Z" fill="url(#paint3_linear_1402_7312)"/>
<path d="M58.1096 43.4342L54.9837 40.3083C54.834 40.1587 54.6137 40.1088 54.4142 40.1753C52.685 40.7323 50.8477 41.0482 48.9356 41.0482C43.5733 41.0482 40.2937 38.7038 38.6102 33.6658C38.2568 32.6141 37.2758 31.9075 36.166 31.9075C35.0561 31.9075 34.0751 32.6141 33.7218 33.6658C32.0383 38.6996 28.7586 41.0482 23.3964 41.0482C21.4884 41.0482 19.6553 40.7365 17.9302 40.1794C17.7307 40.1129 17.5104 40.167 17.3608 40.3125L14.2349 43.4383C13.9522 43.721 14.0478 44.199 14.4136 44.3528C17.1779 45.5292 20.2081 46.1984 23.3964 46.1984C28.9914 46.1984 33.3228 44.1408 36.166 40.1878C39.0092 44.1408 43.3447 46.1984 48.9356 46.1984C52.1321 46.1984 55.1666 45.5292 57.935 44.3445C58.3008 44.1866 58.3964 43.7085 58.1137 43.43L58.1096 43.4342Z" fill="url(#paint4_linear_1402_7312)"/>
<path d="M17.8991 48.1645C18.6972 48.3432 20.8421 48.7714 23.1574 48.7755C23.5315 48.7755 23.7144 49.2286 23.4484 49.4947L19.5285 53.4103C19.5285 53.4103 17.1259 55.8088 13.4721 55.8878C13.4721 55.8878 9.51488 56.0873 6.7922 53.3189C6.7922 53.3189 3.95312 50.7999 3.95312 46.7886C3.95312 46.7886 4.03626 42.7191 6.44719 40.2999C8.85811 37.8807 13.6717 33.0754 13.6717 33.0754C13.6717 33.0754 17.155 29.9038 21.3991 30.7185C25.4686 31.5 27.5095 33.7031 28.557 36.5131C28.6443 36.7459 28.5612 37.0077 28.3617 37.1532C27.8088 37.5564 26.5202 38.2839 24.2548 38.4293C24.0303 38.4418 23.8183 38.3296 23.7186 38.1301C23.4442 37.5772 22.7376 36.4549 21.3575 35.9685C19.4911 35.3076 17.8658 36.1888 17.1093 36.9204C16.3486 37.652 10.3171 43.7043 10.3171 43.7043C10.3171 43.7043 8.39256 45.525 9.41096 48.2352C10.6455 50.9288 13.0357 50.8248 13.9876 50.6627C13.9876 50.6627 15.484 50.5546 17.3546 48.3432C17.4876 48.1853 17.6996 48.1188 17.8991 48.1645Z" fill="url(#paint5_linear_1402_7312)"/>
<path d="M54.4815 48.1645C53.6793 48.3432 51.5385 48.7714 49.2232 48.7755C48.8491 48.7755 48.6662 49.2286 48.9322 49.4947L52.8521 53.4103C52.8521 53.4103 55.2547 55.8088 58.9085 55.8878C58.9085 55.8878 62.8657 56.0873 65.5884 53.3189C65.5884 53.3189 68.4275 50.7999 68.4275 46.7886C68.4275 46.7886 68.3444 42.7191 65.9334 40.2999C63.5225 37.8807 58.709 33.0754 58.709 33.0754C58.709 33.0754 55.2256 29.9038 50.9815 30.7185C46.912 31.5 44.8711 33.7031 43.8236 36.5131C43.7363 36.7459 43.8194 37.0077 44.0189 37.1532C44.5718 37.5564 45.8562 38.2839 48.1217 38.4293C48.3461 38.4418 48.5623 38.3296 48.6662 38.1259C48.9406 37.5731 49.6472 36.4549 51.0231 35.9685C52.8895 35.3076 54.5148 36.1888 55.2713 36.9204C56.032 37.652 62.0635 43.7043 62.0635 43.7043C62.0635 43.7043 63.9881 45.525 62.9697 48.2352C61.7351 50.9288 59.3449 50.8248 58.393 50.6627C58.393 50.6627 56.8966 50.5546 55.0261 48.3432C54.893 48.1853 54.6811 48.1188 54.4815 48.1645Z" fill="url(#paint6_linear_1402_7312)"/>
<path d="M89.5635 12.8486H96.0522C96.4762 12.8486 96.8212 12.5036 96.8212 12.0796V10.7453C96.8212 10.3213 96.4762 9.97632 96.0522 9.97632H89.5635C85.6312 9.97632 82.3764 13.1729 82.3058 17.1052C82.2725 19.0173 83.0124 20.8421 84.3841 22.243C85.7891 23.6729 87.7345 24.4918 89.7214 24.4918H96.048C96.472 24.4918 96.817 24.1467 96.817 23.7228V22.3884C96.817 21.9644 96.472 21.6194 96.048 21.6194H89.6923C87.2773 21.6194 85.2945 19.7905 85.1781 17.4585C85.1157 16.2447 85.5439 15.0933 86.3836 14.2121C87.2232 13.3308 88.3497 12.8445 89.5635 12.8445V12.8486Z" fill="white"/>
<path d="M117.313 9.98047H115.979C115.555 9.98047 115.21 10.3255 115.21 10.7495V14.9935C115.21 15.0642 115.151 15.1266 115.081 15.1266H106.568C106.497 15.1266 106.439 15.0684 106.439 14.9935V10.7495C106.439 10.3255 106.094 9.98047 105.67 9.98047H104.335C103.911 9.98047 103.566 10.3255 103.566 10.7495V23.7269C103.566 24.1509 103.911 24.4959 104.335 24.4959H105.67C106.094 24.4959 106.439 24.1509 106.439 23.7269V18.1277C106.439 18.0571 106.497 17.9989 106.568 17.9989H115.081C115.151 17.9989 115.21 18.0571 115.21 18.1277V23.7269C115.21 24.1509 115.555 24.4959 115.979 24.4959H117.313C117.737 24.4959 118.082 24.1509 118.082 23.7269V10.7495C118.082 10.3255 117.737 9.98047 117.313 9.98047Z" fill="white"/>
<path d="M139.16 23.3735L132.646 10.5956C132.567 10.4377 132.405 10.3379 132.23 10.3379C132.056 10.3379 131.894 10.4377 131.815 10.5956L125.297 23.3735C125.172 23.6146 125.185 23.8931 125.326 24.1217C125.467 24.3504 125.712 24.4917 125.983 24.4917H127.471C127.762 24.4917 128.024 24.3296 128.152 24.0719L132.114 16.3153C132.147 16.253 132.205 16.2447 132.23 16.2447C132.255 16.2447 132.313 16.253 132.347 16.3153L136.308 24.0719C136.441 24.3296 136.703 24.4917 136.99 24.4917H138.478C138.748 24.4917 138.993 24.3545 139.135 24.1217C139.276 23.8931 139.284 23.6105 139.164 23.3735H139.16Z" fill="white"/>
<path d="M146.859 9.98047H148.193C148.617 9.98047 148.962 10.3255 148.962 10.7495V23.7269C148.962 24.1509 148.617 24.4959 148.193 24.4959H146.863C146.439 24.4959 146.094 24.1509 146.094 23.7269V10.7495C146.094 10.3255 146.439 9.98047 146.863 9.98047H146.859Z" fill="white"/>
<path d="M169.458 9.99709L168.123 9.98462H168.119C167.695 9.98462 167.35 10.3296 167.35 10.7536V18.5725C167.35 18.6556 167.284 18.7055 167.217 18.7055C167.188 18.7055 167.163 18.6972 167.138 18.6764L158.509 12.0214L156.459 10.446C156.376 10.3837 156.277 10.3463 156.177 10.3463C155.919 10.3463 155.707 10.5583 155.707 10.816V23.7435C155.707 24.1675 156.052 24.5125 156.476 24.5125H157.81C158.234 24.5125 158.579 24.1675 158.579 23.7435V15.9828C158.579 15.9371 158.6 15.908 158.617 15.8914C158.642 15.8665 158.675 15.854 158.708 15.854C158.737 15.854 158.762 15.8623 158.787 15.8831L167.417 22.5381L169.466 24.1135C169.549 24.1758 169.649 24.2091 169.749 24.2091C170.006 24.2091 170.218 23.9971 170.218 23.7394V10.7661C170.218 10.3463 169.877 10.0012 169.458 9.99709Z" fill="white"/>
<path d="M117.099 31.8576C117.02 31.6996 116.858 31.5999 116.683 31.5999C116.509 31.5999 116.346 31.6996 116.267 31.8576L109.754 44.6355C109.629 44.8766 109.642 45.1551 109.783 45.3837C109.924 45.6123 110.169 45.7495 110.44 45.7495H111.928C112.219 45.7495 112.481 45.5874 112.609 45.3297L116.571 37.5731C116.604 37.5108 116.662 37.5025 116.687 37.5025C116.712 37.5025 116.77 37.5108 116.804 37.5731L120.765 45.3297C120.898 45.5874 121.16 45.7495 121.447 45.7495H122.935C123.205 45.7495 123.45 45.6123 123.592 45.3837C123.733 45.1551 123.741 44.8724 123.621 44.6355L117.103 31.8576H117.099Z" fill="white"/>
<path d="M107.777 31.2424H106.289C105.998 31.2424 105.736 31.4004 105.607 31.6623L101.645 39.4188C101.612 39.4811 101.554 39.4895 101.529 39.4895C101.504 39.4895 101.446 39.4811 101.413 39.4188L98.5445 33.7947C98.4655 33.6367 98.3034 33.5411 98.1288 33.5411C97.9542 33.5411 97.7921 33.6409 97.7131 33.7947L94.845 39.4188C94.8117 39.4811 94.7535 39.4895 94.7286 39.4895C94.7036 39.4895 94.6454 39.4811 94.6122 39.4188L90.6508 31.6623C90.5178 31.4045 90.2559 31.2424 89.9691 31.2424H88.481C88.2108 31.2424 87.9655 31.3796 87.8242 31.6082C87.6829 31.8369 87.6745 32.1195 87.7951 32.3606L94.3129 45.1385C94.3919 45.2965 94.554 45.3921 94.7286 45.3921C94.9032 45.3921 95.0653 45.2923 95.1443 45.1385L98.0124 39.5102C98.0457 39.4479 98.1039 39.4396 98.1288 39.4396C98.1538 39.4396 98.212 39.4479 98.2452 39.5102L101.113 45.1385C101.192 45.2965 101.354 45.3921 101.529 45.3921C101.704 45.3921 101.866 45.2923 101.945 45.1385L108.458 32.3606C108.579 32.1195 108.571 31.841 108.429 31.6082C108.288 31.3796 108.043 31.2424 107.773 31.2424H107.777Z" fill="white"/>
<path d="M141.599 38.8743C143.012 38.2258 143.922 36.7959 143.922 35.2412C143.922 34.1854 143.511 33.1795 142.758 32.4105C142.006 31.6581 141.008 31.2466 139.944 31.2466H131.593C131.169 31.2466 130.824 31.5916 130.824 32.0156V44.993C130.824 45.417 131.169 45.762 131.593 45.762H132.928C133.352 45.762 133.697 45.417 133.697 44.993V39.3731C133.697 39.3024 133.755 39.2442 133.825 39.2442H136.058C136.881 39.2442 137.629 39.6682 138.061 40.379L140.601 45.3463C140.734 45.6041 140.996 45.7662 141.283 45.7662H142.771C143.041 45.7662 143.286 45.629 143.428 45.4004C143.569 45.1718 143.577 44.8891 143.457 44.6522L140.767 39.3273C140.742 39.2775 140.755 39.2359 140.767 39.2151C140.784 39.1777 140.821 39.1486 140.863 39.1403C141.116 39.0821 141.366 38.999 141.599 38.8867V38.8743ZM141.075 35.2412C141.075 35.6819 140.813 36.0851 140.406 36.2596C140.26 36.3303 140.106 36.3677 139.948 36.3677L133.83 36.3885C133.759 36.3885 133.697 36.3303 133.697 36.2555V34.2436C133.697 34.1729 133.755 34.1148 133.825 34.1148H139.944C140.364 34.1148 140.622 34.3101 140.734 34.4307C140.834 34.5304 141.071 34.8131 141.071 35.2454L141.075 35.2412Z" fill="white"/>
<path d="M164.435 42.8648H156.595C156.52 42.8648 156.487 42.8149 156.479 42.7899C156.466 42.7692 156.45 42.711 156.491 42.6528L164.734 31.9948C164.846 31.8535 164.863 31.6623 164.784 31.5002C164.705 31.338 164.543 31.2383 164.364 31.2383H151.441C151.017 31.2383 150.672 31.5833 150.672 32.0073V33.3416C150.672 33.7656 151.017 34.1106 151.441 34.1106H159.243C159.318 34.1106 159.351 34.1605 159.36 34.1854C159.372 34.2062 159.389 34.2644 159.347 34.3226L151.104 45.0013C150.996 45.1427 150.975 45.3339 151.054 45.496C151.133 45.6581 151.295 45.7579 151.474 45.7579L164.439 45.7413C164.863 45.7413 165.204 45.3962 165.204 44.9722V43.6379C165.204 43.2139 164.859 42.8689 164.435 42.8689V42.8648Z" fill="white"/>
<defs>
<linearGradient id="paint0_linear_1402_7312" x1="43.913" y1="0.889467" x2="43.913" y2="58.1988" gradientUnits="userSpaceOnUse">
<stop stop-color="#35D2E2"/>
<stop offset="0.3" stop-color="#3B57EE"/>
<stop offset="0.7" stop-color="#752CE8"/>
<stop offset="1" stop-color="#EC8481"/>
</linearGradient>
<linearGradient id="paint1_linear_1402_7312" x1="28.4638" y1="0.889467" x2="28.4638" y2="58.1988" gradientUnits="userSpaceOnUse">
<stop stop-color="#35D2E2"/>
<stop offset="0.3" stop-color="#3B57EE"/>
<stop offset="0.7" stop-color="#752CE8"/>
<stop offset="1" stop-color="#EC8481"/>
</linearGradient>
<linearGradient id="paint2_linear_1402_7312" x1="14.3641" y1="0.889549" x2="14.3641" y2="58.1989" gradientUnits="userSpaceOnUse">
<stop stop-color="#35D2E2"/>
<stop offset="0.3" stop-color="#3B57EE"/>
<stop offset="0.7" stop-color="#752CE8"/>
<stop offset="1" stop-color="#EC8481"/>
</linearGradient>
<linearGradient id="paint3_linear_1402_7312" x1="57.9584" y1="0.889549" x2="57.9584" y2="58.1989" gradientUnits="userSpaceOnUse">
<stop stop-color="#35D2E2"/>
<stop offset="0.3" stop-color="#3B57EE"/>
<stop offset="0.7" stop-color="#752CE8"/>
<stop offset="1" stop-color="#EC8481"/>
</linearGradient>
<linearGradient id="paint4_linear_1402_7312" x1="36.1701" y1="0.889659" x2="36.1701" y2="58.199" gradientUnits="userSpaceOnUse">
<stop stop-color="#35D2E2"/>
<stop offset="0.3" stop-color="#3B57EE"/>
<stop offset="0.7" stop-color="#752CE8"/>
<stop offset="1" stop-color="#EC8481"/>
</linearGradient>
<linearGradient id="paint5_linear_1402_7312" x1="16.2738" y1="0.889562" x2="16.2738" y2="58.1989" gradientUnits="userSpaceOnUse">
<stop stop-color="#35D2E2"/>
<stop offset="0.3" stop-color="#3B57EE"/>
<stop offset="0.7" stop-color="#752CE8"/>
<stop offset="1" stop-color="#EC8481"/>
</linearGradient>
<linearGradient id="paint6_linear_1402_7312" x1="56.111" y1="0.889562" x2="56.111" y2="58.1989" gradientUnits="userSpaceOnUse">
<stop stop-color="#35D2E2"/>
<stop offset="0.3" stop-color="#3B57EE"/>
<stop offset="0.7" stop-color="#752CE8"/>
<stop offset="1" stop-color="#EC8481"/>
</linearGradient>
</defs>
</svg>
