<svg width="147" height="114" viewBox="0 0 147 114" fill="none" xmlns="http://www.w3.org/2000/svg">
<path d="M91.6993 24.1216H86.9778C83.329 24.1216 80.3711 27.0748 80.3711 30.7178V44.8854C80.3711 48.5284 83.329 51.4816 86.9778 51.4816H91.6993C95.3481 51.4816 98.3061 48.5284 98.3061 44.8854V30.7178C98.3061 27.0748 95.3481 24.1216 91.6993 24.1216Z" fill="white"/>
<path d="M60.1339 24.1216H55.4124C51.7636 24.1216 48.8057 27.0748 48.8057 30.7178V44.8854C48.8057 48.5284 51.7636 51.4816 55.4124 51.4816H60.1339C63.7827 51.4816 66.7406 48.5284 66.7406 44.8854V30.7178C66.7406 27.0748 63.7827 24.1216 60.1339 24.1216Z" fill="white"/>
<path d="M17.7001 68.4722C13.4117 62.5458 10.8301 55.3051 10.7537 47.4626C10.5669 27.1396 27.5932 10.5133 47.9484 10.5133H52.2708C55.0731 10.5133 57.5273 8.40218 57.7056 5.60428C57.9009 2.54354 55.4722 0 52.4491 0H48.0843C21.9885 0 0.325605 20.8655 0.21521 46.9199C0.17275 57.7639 3.82428 67.76 9.97244 75.7468C10.3885 76.2894 11.1953 76.3318 11.6878 75.8485L17.5897 69.956C17.9888 69.5575 18.0313 68.9301 17.7001 68.4638V68.4722Z" fill="white"/>
<path d="M94.5435 10.5133H99.0527C119.391 10.5133 136.426 27.1311 136.247 47.4371C136.179 55.2797 133.606 62.5119 129.318 68.4468C128.987 68.9046 129.029 69.532 129.428 69.939L135.33 75.8231C135.814 76.3064 136.621 76.264 137.046 75.7213C143.185 67.7346 146.828 57.7385 146.786 46.903C146.667 20.8486 125.013 0 98.9168 0H94.7388C91.9365 0 89.4823 2.11114 89.304 4.90904C89.1087 7.96977 91.5374 10.5133 94.5605 10.5133H94.5435Z" fill="white"/>
<path d="M118.338 88.5916L111.952 82.2158C111.646 81.9106 111.196 81.8089 110.788 81.9445C107.256 83.0806 103.502 83.725 99.596 83.725C88.6414 83.725 81.9413 78.9431 78.502 68.6672C77.7802 66.5221 75.7761 65.0808 73.5088 65.0808C71.2414 65.0808 69.2373 66.5221 68.5155 68.6672C65.0763 78.9346 58.3761 83.725 47.4215 83.725C43.5237 83.725 39.7788 83.0891 36.2546 81.953C35.847 81.8173 35.397 81.9276 35.0913 82.2243L28.7053 88.6001C28.1279 89.1767 28.3232 90.1517 29.0705 90.4654C34.7176 92.8648 40.9082 94.2298 47.4215 94.2298C58.8517 94.2298 67.7003 90.033 73.5088 81.9699C79.3173 90.033 88.1744 94.2298 99.596 94.2298C106.126 94.2298 112.325 92.8648 117.981 90.4484C118.728 90.1262 118.924 89.1512 118.346 88.5832L118.338 88.5916Z" fill="white"/>
<path d="M36.1877 98.2407C37.8182 98.6053 42.2 99.4785 46.93 99.487C47.6943 99.487 48.0679 100.411 47.5245 100.954L39.5166 108.941C39.5166 108.941 34.6082 113.833 27.1438 113.994C27.1438 113.994 19.0595 114.401 13.4973 108.754C13.4973 108.754 7.69727 103.616 7.69727 95.4343C7.69727 95.4343 7.8671 87.1339 12.7924 82.1994C17.7178 77.2649 27.5514 67.4638 27.5514 67.4638C27.5514 67.4638 34.6677 60.9947 43.3379 62.6565C51.6515 64.2505 55.8211 68.744 57.961 74.4755C58.1394 74.9503 57.9695 75.4844 57.5619 75.7812C56.4325 76.6036 53.8 78.0873 49.1719 78.3841C48.7133 78.4095 48.2802 78.1806 48.0764 77.7736C47.516 76.646 46.0723 74.3568 43.253 73.3648C39.4401 72.0167 36.1198 73.8142 34.5743 75.3064C33.0202 76.7986 20.6984 89.1433 20.6984 89.1433C20.6984 89.1433 16.7667 92.8569 18.8472 98.3848C21.3693 103.879 26.2522 103.667 28.1968 103.336C28.1968 103.336 31.2539 103.116 35.0753 98.6053C35.347 98.2831 35.7801 98.1474 36.1877 98.2407Z" fill="white"/>
<path d="M110.925 98.2407C109.286 98.6053 104.913 99.4785 100.183 99.487C99.4183 99.487 99.0447 100.411 99.5881 100.954L107.596 108.941C107.596 108.941 112.504 113.833 119.969 113.994C119.969 113.994 128.053 114.401 133.615 108.754C133.615 108.754 139.415 103.616 139.415 95.4343C139.415 95.4343 139.245 87.1339 134.32 82.1994C129.395 77.2649 119.561 67.4638 119.561 67.4638C119.561 67.4638 112.445 60.9947 103.775 62.6565C95.461 64.2505 91.2915 68.744 89.1515 74.4755C88.9732 74.9503 89.143 75.4844 89.5507 75.7812C90.6801 76.6036 93.3041 78.0873 97.9322 78.3841C98.3908 78.4095 98.8324 78.1806 99.0447 77.7652C99.6051 76.6375 101.049 74.3568 103.86 73.3648C107.672 72.0167 110.993 73.8142 112.538 75.3064C114.092 76.7986 126.414 89.1433 126.414 89.1433C126.414 89.1433 130.346 92.8569 128.265 98.3848C125.743 103.879 120.86 103.667 118.916 103.336C118.916 103.336 115.859 103.116 112.037 98.6053C111.766 98.2831 111.332 98.1474 110.925 98.2407Z" fill="white"/>
</svg>
