<svg width="180" height="140" viewBox="0 0 180 140" fill="none" xmlns="http://www.w3.org/2000/svg">
<path d="M112.349 29.623H106.551C102.07 29.623 98.4375 33.2498 98.4375 37.7237V55.1225C98.4375 59.5963 102.07 63.2231 106.551 63.2231H112.349C116.83 63.2231 120.463 59.5963 120.463 55.1225V37.7237C120.463 33.2498 116.83 29.623 112.349 29.623Z" fill="white"/>
<path d="M73.5847 29.623H67.7864C63.3054 29.623 59.6729 33.2498 59.6729 37.7237V55.1225C59.6729 59.5963 63.3054 63.2231 67.7864 63.2231H73.5847C78.0657 63.2231 81.6983 59.5963 81.6983 55.1225V37.7237C81.6983 33.2498 78.0657 29.623 73.5847 29.623Z" fill="white"/>
<path d="M21.4731 84.0887C16.2066 76.8106 13.0363 67.9186 12.9425 58.2873C12.713 33.3294 33.6226 12.9111 58.6201 12.9111H63.9283C67.3698 12.9111 70.3837 10.3185 70.6027 6.88245C70.8426 3.12365 67.86 0 64.1473 0H58.787C26.7396 0 0.136023 25.6244 0.000449792 57.621C-0.0516937 70.9381 4.43264 83.2141 11.983 93.0223C12.494 93.6887 13.4847 93.7408 14.0896 93.1473L21.3376 85.9108C21.8277 85.4215 21.8799 84.651 21.4731 84.0783V84.0887Z" fill="white"/>
<path d="M115.843 12.9111H121.38C146.357 12.9111 167.277 33.319 167.058 58.2561C166.974 67.8874 163.815 76.769 158.548 84.0575C158.141 84.6197 158.193 85.3902 158.684 85.89L165.932 93.1161C166.526 93.7095 167.517 93.6575 168.038 92.9911C175.578 83.1828 180.052 70.9069 180 57.6001C179.854 25.6035 153.261 0 121.213 0H116.082C112.641 0 109.627 2.59263 109.408 6.02865C109.168 9.78744 112.151 12.9111 115.863 12.9111H115.843Z" fill="white"/>
<path d="M145.064 108.797L137.222 100.967C136.846 100.592 136.293 100.467 135.793 100.634C131.454 102.029 126.845 102.82 122.048 102.82C108.595 102.82 100.367 96.9477 96.1429 84.3282C95.2564 81.6939 92.7953 79.9238 90.0108 79.9238C87.2264 79.9238 84.7652 81.6939 83.8787 84.3282C79.6551 96.9373 71.4269 102.82 57.9739 102.82C53.1871 102.82 48.588 102.039 44.2601 100.644C43.7596 100.477 43.2068 100.613 42.8314 100.977L34.989 108.807C34.2799 109.515 34.5197 110.713 35.4375 111.098C42.3725 114.045 49.9751 115.721 57.9739 115.721C72.0109 115.721 82.8776 110.567 90.0108 100.665C97.144 110.567 108.021 115.721 122.048 115.721C130.067 115.721 137.68 114.045 144.626 111.077C145.544 110.681 145.783 109.484 145.074 108.786L145.064 108.797Z" fill="white"/>
<path d="M44.1767 120.646C46.1791 121.094 51.5603 122.167 57.369 122.177C58.3076 122.177 58.7665 123.312 58.0991 123.978L48.2648 133.787C48.2648 133.787 42.237 139.794 33.0702 139.992C33.0702 139.992 23.1421 140.492 16.3113 133.558C16.3113 133.558 9.18848 127.248 9.18848 117.2C9.18848 117.2 9.39705 107.006 15.4457 100.947C21.4943 94.8867 33.5708 82.8502 33.5708 82.8502C33.5708 82.8502 42.31 74.9057 52.9577 76.9465C63.1674 78.904 68.2879 84.4225 70.9159 91.4611C71.1349 92.0442 70.9264 92.7001 70.4258 93.0646C69.0388 94.0746 65.8059 95.8967 60.1222 96.2611C59.5591 96.2923 59.0272 96.0112 58.7769 95.5114C58.0886 94.1266 56.3157 91.3153 52.8534 90.0971C48.1709 88.4416 44.0933 90.649 42.1953 92.4815C40.2868 94.314 25.1548 109.474 25.1548 109.474C25.1548 109.474 20.3263 114.035 22.8814 120.823C25.9787 127.571 31.9752 127.31 34.3633 126.904C34.3633 126.904 38.1177 126.633 42.8106 121.094C43.1443 120.698 43.6762 120.532 44.1767 120.646Z" fill="white"/>
<path d="M135.96 120.646C133.947 121.094 128.576 122.167 122.767 122.177C121.829 122.177 121.37 123.312 122.037 123.978L131.871 133.787C131.871 133.787 137.899 139.794 147.066 139.992C147.066 139.992 156.994 140.492 163.825 133.558C163.825 133.558 170.948 127.248 170.948 117.2C170.948 117.2 170.739 107.006 164.691 100.947C158.642 94.8867 146.566 82.8502 146.566 82.8502C146.566 82.8502 137.826 74.9057 127.179 76.9465C116.969 78.904 111.848 84.4225 109.22 91.4611C109.001 92.0442 109.21 92.7001 109.71 93.0646C111.098 94.0746 114.32 95.8967 120.004 96.2611C120.567 96.2923 121.109 96.0112 121.37 95.501C122.058 94.1162 123.831 91.3153 127.283 90.0971C131.965 88.4416 136.043 90.649 137.941 92.4815C139.849 94.314 154.981 109.474 154.981 109.474C154.981 109.474 159.81 114.035 157.255 120.823C154.158 127.571 148.161 127.31 145.773 126.904C145.773 126.904 142.019 126.633 137.326 121.094C136.992 120.698 136.46 120.532 135.96 120.646Z" fill="white"/>
</svg>
