<svg width="144" height="46" viewBox="0 0 144 46" fill="none" xmlns="http://www.w3.org/2000/svg">
<g clip-path="url(#clip0_172_2322)">
<path d="M37.5873 9.7312H35.6855C34.2158 9.7312 33.0244 10.9226 33.0244 12.3923V18.1078C33.0244 19.5775 34.2158 20.7689 35.6855 20.7689H37.5873C39.0569 20.7689 40.2484 19.5775 40.2484 18.1078V12.3923C40.2484 10.9226 39.0569 9.7312 37.5873 9.7312Z" fill="url(#paint0_linear_172_2322)"/>
<path d="M24.8734 9.7312H22.9716C21.502 9.7312 20.3105 10.9226 20.3105 12.3923V18.1078C20.3105 19.5775 21.502 20.7689 22.9716 20.7689H24.8734C26.3431 20.7689 27.5345 19.5775 27.5345 18.1078V12.3923C27.5345 10.9226 26.3431 9.7312 24.8734 9.7312Z" fill="url(#paint1_linear_172_2322)"/>
<path d="M7.78207 27.6234C6.05475 25.2325 5.01494 22.3114 4.98416 19.1476C4.90891 10.9488 11.7669 4.24133 19.9656 4.24133H21.7066C22.8354 4.24133 23.8239 3.38964 23.8957 2.2609C23.9744 1.02613 22.9961 0 21.7785 0H20.0204C9.50938 0 0.783871 8.41767 0.739405 18.9286C0.722303 23.3034 2.19309 27.3361 4.66948 30.5581C4.83708 30.777 5.16202 30.7941 5.3604 30.5991L7.7376 28.222C7.89836 28.0612 7.91546 27.8081 7.78207 27.62V27.6234Z" fill="url(#paint2_linear_172_2322)"/>
<path d="M38.733 4.24133H40.5492C48.7412 4.24133 55.6026 10.9454 55.5307 19.1373C55.5034 22.3012 54.467 25.2188 52.7397 27.6131C52.6063 27.7978 52.6234 28.0509 52.7841 28.2151L55.1613 30.5889C55.3563 30.7838 55.6812 30.7667 55.8522 30.5478C58.3252 27.3258 59.7926 23.2931 59.7755 18.9218C59.7276 8.41083 51.0055 0 40.4945 0H38.8117C37.6829 0 36.6944 0.851686 36.6226 1.98043C36.5439 3.2152 37.5222 4.24133 38.7398 4.24133H38.733Z" fill="url(#paint3_linear_172_2322)"/>
<path d="M48.3171 35.74L45.745 33.1678C45.6218 33.0447 45.4405 33.0036 45.2764 33.0584C43.8535 33.5167 42.3416 33.7766 40.7682 33.7766C36.3559 33.7766 33.6572 31.8475 32.2719 27.702C31.9812 26.8366 31.1739 26.2551 30.2607 26.2551C29.3474 26.2551 28.5402 26.8366 28.2495 27.702C26.8642 31.8441 24.1655 33.7766 19.7531 33.7766C18.1832 33.7766 16.6747 33.5201 15.2553 33.0618C15.0911 33.0071 14.9098 33.0515 14.7867 33.1712L12.2145 35.7434C11.9819 35.976 12.0606 36.3693 12.3616 36.4959C14.6362 37.4639 17.1297 38.0146 19.7531 38.0146C24.357 38.0146 27.9211 36.3214 30.2607 33.0686C32.6003 36.3214 36.1678 38.0146 40.7682 38.0146C43.3985 38.0146 45.8955 37.4639 48.1735 36.489C48.4745 36.3591 48.5531 35.9657 48.3205 35.7366L48.3171 35.74Z" fill="url(#paint4_linear_172_2322)"/>
<path d="M15.2285 39.6324C15.8852 39.7795 17.6501 40.1318 19.5553 40.1352C19.8631 40.1352 20.0136 40.508 19.7947 40.7269L16.5693 43.949C16.5693 43.949 14.5923 45.9226 11.5857 45.9876C11.5857 45.9876 8.32946 46.1517 6.08908 43.8737C6.08908 43.8737 3.75293 41.801 3.75293 38.5002C3.75293 38.5002 3.82134 35.1516 5.80519 33.1609C7.78903 31.1703 11.7499 27.2162 11.7499 27.2162C11.7499 27.2162 14.6162 24.6065 18.1085 25.2769C21.4571 25.9199 23.1365 27.7327 23.9984 30.0449C24.0703 30.2365 24.0019 30.452 23.8377 30.5717C23.3828 30.9035 22.3224 31.502 20.4583 31.6218C20.2736 31.632 20.0992 31.5397 20.0171 31.3755C19.7913 30.9206 19.2098 29.9971 18.0743 29.5969C16.5385 29.053 15.2011 29.7781 14.5786 30.3801C13.9526 30.9821 8.9896 35.9623 8.9896 35.9623C8.9896 35.9623 7.40595 37.4604 8.24395 39.6905C9.25982 41.907 11.2266 41.8215 12.0098 41.6881C12.0098 41.6881 13.2412 41.5991 14.7804 39.7795C14.8898 39.6495 15.0643 39.5948 15.2285 39.6324Z" fill="url(#paint5_linear_172_2322)"/>
<path d="M45.3316 39.6324C44.6714 39.7795 42.9099 40.1318 41.0047 40.1352C40.6969 40.1352 40.5464 40.508 40.7653 40.7269L43.9908 43.949C43.9908 43.949 45.9678 45.9226 48.9743 45.9876C48.9743 45.9876 52.2306 46.1517 54.471 43.8737C54.471 43.8737 56.8071 41.801 56.8071 38.5002C56.8071 38.5002 56.7387 35.1516 54.7548 33.1609C52.771 31.1703 48.8101 27.2162 48.8101 27.2162C48.8101 27.2162 45.9438 24.6065 42.4516 25.2769C39.103 25.9199 37.4235 27.7327 36.5616 30.0449C36.4898 30.2365 36.5582 30.452 36.7224 30.5717C37.1773 30.9035 38.2342 31.502 40.0983 31.6218C40.283 31.632 40.4609 31.5397 40.5464 31.3721C40.7721 30.9172 41.3536 29.9971 42.4858 29.5969C44.0215 29.053 45.3589 29.7781 45.9815 30.3801C46.6074 30.9821 51.5704 35.9623 51.5704 35.9623C51.5704 35.9623 53.1541 37.4604 52.3161 39.6905C51.3002 41.907 49.3335 41.8215 48.5502 41.6881C48.5502 41.6881 47.3188 41.5991 45.7796 39.7795C45.6702 39.6495 45.4958 39.5948 45.3316 39.6324Z" fill="url(#paint6_linear_172_2322)"/>
<path d="M74.1976 10.5725H79.5368C79.8857 10.5725 80.1696 10.2886 80.1696 9.93973V8.84177C80.1696 8.49288 79.8857 8.20898 79.5368 8.20898H74.1976C70.9618 8.20898 68.2836 10.8393 68.2255 14.075C68.1981 15.6484 68.807 17.15 69.9357 18.3027C71.0918 19.4793 72.6926 20.1531 74.3275 20.1531H79.5334C79.8823 20.1531 80.1662 19.8692 80.1662 19.5203V18.4224C80.1662 18.0735 79.8823 17.7896 79.5334 17.7896H74.3036C72.3163 17.7896 70.6848 16.2846 70.589 14.3658C70.5377 13.367 70.89 12.4195 71.5809 11.6944C72.2719 10.9693 73.1988 10.5691 74.1976 10.5691V10.5725Z" fill="#070123"/>
<path d="M97.0321 8.2124H95.9341C95.5852 8.2124 95.3013 8.49629 95.3013 8.84518V12.3374C95.3013 12.3956 95.2534 12.4469 95.1953 12.4469H88.1903C88.1321 12.4469 88.0842 12.399 88.0842 12.3374V8.84518C88.0842 8.49629 87.8003 8.2124 87.4514 8.2124H86.3535C86.0046 8.2124 85.7207 8.49629 85.7207 8.84518V19.5238C85.7207 19.8726 86.0046 20.1565 86.3535 20.1565H87.4514C87.8003 20.1565 88.0842 19.8726 88.0842 19.5238V14.9164C88.0842 14.8583 88.1321 14.8104 88.1903 14.8104H95.1953C95.2534 14.8104 95.3013 14.8583 95.3013 14.9164V19.5238C95.3013 19.8726 95.5852 20.1565 95.9341 20.1565H97.0321C97.3809 20.1565 97.6648 19.8726 97.6648 19.5238V8.84518C97.6648 8.49629 97.3809 8.2124 97.0321 8.2124Z" fill="#070123"/>
<path d="M115.007 19.2331L109.647 8.71866C109.582 8.58868 109.449 8.50659 109.305 8.50659C109.162 8.50659 109.028 8.58868 108.963 8.71866L103.6 19.2331C103.497 19.4314 103.508 19.6606 103.624 19.8487C103.74 20.0369 103.942 20.1531 104.164 20.1531H105.389C105.628 20.1531 105.844 20.0197 105.95 19.8077L109.209 13.4252C109.237 13.3739 109.285 13.367 109.305 13.367C109.326 13.367 109.374 13.3739 109.401 13.4252L112.661 19.8077C112.77 20.0197 112.986 20.1531 113.222 20.1531H114.446C114.668 20.1531 114.87 20.0403 114.987 19.8487C115.103 19.6606 115.11 19.428 115.01 19.2331H115.007Z" fill="#070123"/>
<path d="M121.341 8.2124H122.439C122.788 8.2124 123.072 8.49629 123.072 8.84518V19.5238C123.072 19.8726 122.788 20.1565 122.439 20.1565H121.345C120.996 20.1565 120.712 19.8726 120.712 19.5238V8.84518C120.712 8.49629 120.996 8.2124 121.345 8.2124H121.341Z" fill="#070123"/>
<path d="M139.938 8.22608L138.84 8.21582H138.836C138.488 8.21582 138.204 8.49972 138.204 8.8486V15.2824C138.204 15.3508 138.149 15.3919 138.094 15.3919C138.07 15.3919 138.05 15.385 138.029 15.3679L130.928 9.89183L129.242 8.59549C129.174 8.54418 129.092 8.5134 129.01 8.5134C128.797 8.5134 128.623 8.68784 128.623 8.89991V19.5374C128.623 19.8863 128.907 20.1702 129.256 20.1702H130.354C130.703 20.1702 130.987 19.8863 130.987 19.5374V13.1515C130.987 13.1139 131.004 13.0899 131.017 13.0763C131.038 13.0557 131.065 13.0455 131.093 13.0455C131.117 13.0455 131.137 13.0523 131.158 13.0694L138.258 18.5455L139.945 19.8419C140.013 19.8932 140.095 19.9205 140.177 19.9205C140.389 19.9205 140.564 19.7461 140.564 19.534V8.85886C140.564 8.5134 140.283 8.2295 139.938 8.22608Z" fill="#070123"/>
<path d="M96.8547 26.214C96.7898 26.084 96.6564 26.002 96.5127 26.002C96.369 26.002 96.2357 26.084 96.1707 26.214L90.8109 36.7284C90.7082 36.9268 90.7185 37.156 90.8348 37.3441C90.9511 37.5322 91.1529 37.6451 91.3752 37.6451H92.5997C92.8392 37.6451 93.0547 37.5117 93.1607 37.2996L96.4204 30.9171C96.4477 30.8658 96.4956 30.859 96.5161 30.859C96.5366 30.859 96.5845 30.8658 96.6119 30.9171L99.8716 37.2996C99.981 37.5117 100.197 37.6451 100.433 37.6451H101.657C101.879 37.6451 102.081 37.5322 102.197 37.3441C102.314 37.156 102.321 36.9234 102.221 36.7284L96.8582 26.214H96.8547Z" fill="#070123"/>
<path d="M89.1821 25.7078H87.9576C87.7182 25.7078 87.5027 25.8377 87.3967 26.0532L84.137 32.4357C84.1096 32.4871 84.0618 32.4939 84.0412 32.4939C84.0207 32.4939 83.9728 32.4871 83.9455 32.4357L81.5854 27.8079C81.5204 27.6779 81.387 27.5993 81.2433 27.5993C81.0997 27.5993 80.9663 27.6814 80.9013 27.8079L78.5412 32.4357C78.5138 32.4871 78.4659 32.4939 78.4454 32.4939C78.4249 32.4939 78.377 32.4871 78.3496 32.4357L75.09 26.0532C74.9805 25.8412 74.765 25.7078 74.529 25.7078H73.3045C73.0822 25.7078 72.8804 25.8206 72.7641 26.0088C72.6478 26.1969 72.641 26.4295 72.7401 26.6279L78.1034 37.1423C78.1684 37.2722 78.3018 37.3509 78.4454 37.3509C78.5891 37.3509 78.7225 37.2688 78.7875 37.1423L81.1476 32.511C81.1749 32.4597 81.2228 32.4528 81.2433 32.4528C81.2639 32.4528 81.3117 32.4597 81.3391 32.511L83.6992 37.1423C83.7642 37.2722 83.8976 37.3509 84.0412 37.3509C84.1849 37.3509 84.3183 37.2688 84.3833 37.1423L89.7431 26.6279C89.8423 26.4295 89.8354 26.2003 89.7191 26.0088C89.6029 25.8206 89.4011 25.7078 89.1787 25.7078H89.1821Z" fill="#070123"/>
<path d="M117.014 31.9877C118.177 31.4541 118.926 30.2775 118.926 28.9982C118.926 28.1294 118.588 27.3017 117.968 26.6689C117.349 26.0498 116.528 25.7112 115.653 25.7112H108.781C108.432 25.7112 108.148 25.9951 108.148 26.344V37.0225C108.148 37.3714 108.432 37.6553 108.781 37.6553H109.879C110.228 37.6553 110.512 37.3714 110.512 37.0225V32.3981C110.512 32.34 110.56 32.2921 110.618 32.2921H112.455C113.132 32.2921 113.748 32.641 114.103 33.2259L116.193 37.3133C116.303 37.5253 116.518 37.6587 116.754 37.6587H117.979C118.201 37.6587 118.403 37.5459 118.519 37.3577C118.635 37.1696 118.642 36.937 118.543 36.7421L116.33 32.3605C116.31 32.3194 116.32 32.2852 116.33 32.2681C116.344 32.2374 116.375 32.2134 116.409 32.2066C116.617 32.1587 116.823 32.0903 117.014 31.9979V31.9877ZM116.583 28.9982C116.583 29.3608 116.368 29.6926 116.033 29.8362C115.913 29.8944 115.786 29.9251 115.656 29.9251L110.621 29.9422C110.563 29.9422 110.512 29.8944 110.512 29.8328V28.1773C110.512 28.1192 110.56 28.0713 110.618 28.0713H115.653C115.998 28.0713 116.21 28.232 116.303 28.3312C116.385 28.4133 116.58 28.6459 116.58 29.0016L116.583 28.9982Z" fill="#070123"/>
<path d="M135.806 35.2715H129.356C129.294 35.2715 129.267 35.2305 129.26 35.21C129.25 35.1929 129.236 35.145 129.27 35.0971L136.053 26.3271C136.145 26.2108 136.159 26.0535 136.094 25.9201C136.029 25.7867 135.895 25.7046 135.748 25.7046H125.114C124.765 25.7046 124.481 25.9885 124.481 26.3374V27.4353C124.481 27.7842 124.765 28.0681 125.114 28.0681H131.534C131.596 28.0681 131.623 28.1091 131.63 28.1297C131.64 28.1468 131.654 28.1947 131.62 28.2425L124.837 37.0296C124.748 37.1459 124.731 37.3033 124.796 37.4367C124.861 37.5701 124.995 37.6521 125.142 37.6521L135.81 37.6385C136.159 37.6385 136.439 37.3546 136.439 37.0057V35.9077C136.439 35.5588 136.155 35.2749 135.806 35.2749V35.2715Z" fill="#070123"/>
</g>
<defs>
<linearGradient id="paint0_linear_172_2322" x1="36.6364" y1="0.732056" x2="36.6364" y2="47.8895" gradientUnits="userSpaceOnUse">
<stop stop-color="#35D2E2"/>
<stop offset="0.3" stop-color="#3B57EE"/>
<stop offset="0.7" stop-color="#752CE8"/>
<stop offset="1" stop-color="#EC8481"/>
</linearGradient>
<linearGradient id="paint1_linear_172_2322" x1="23.9225" y1="0.732056" x2="23.9225" y2="47.8895" gradientUnits="userSpaceOnUse">
<stop stop-color="#35D2E2"/>
<stop offset="0.3" stop-color="#3B57EE"/>
<stop offset="0.7" stop-color="#752CE8"/>
<stop offset="1" stop-color="#EC8481"/>
</linearGradient>
<linearGradient id="paint2_linear_172_2322" x1="12.321" y1="0.731972" x2="12.321" y2="47.8894" gradientUnits="userSpaceOnUse">
<stop stop-color="#35D2E2"/>
<stop offset="0.3" stop-color="#3B57EE"/>
<stop offset="0.7" stop-color="#752CE8"/>
<stop offset="1" stop-color="#EC8481"/>
</linearGradient>
<linearGradient id="paint3_linear_172_2322" x1="48.1939" y1="0.731972" x2="48.1939" y2="47.8894" gradientUnits="userSpaceOnUse">
<stop stop-color="#35D2E2"/>
<stop offset="0.3" stop-color="#3B57EE"/>
<stop offset="0.7" stop-color="#752CE8"/>
<stop offset="1" stop-color="#EC8481"/>
</linearGradient>
<linearGradient id="paint4_linear_172_2322" x1="30.2641" y1="0.731899" x2="30.2641" y2="47.8893" gradientUnits="userSpaceOnUse">
<stop stop-color="#35D2E2"/>
<stop offset="0.3" stop-color="#3B57EE"/>
<stop offset="0.7" stop-color="#752CE8"/>
<stop offset="1" stop-color="#EC8481"/>
</linearGradient>
<linearGradient id="paint5_linear_172_2322" x1="13.8911" y1="0.731877" x2="13.8911" y2="47.8893" gradientUnits="userSpaceOnUse">
<stop stop-color="#35D2E2"/>
<stop offset="0.3" stop-color="#3B57EE"/>
<stop offset="0.7" stop-color="#752CE8"/>
<stop offset="1" stop-color="#EC8481"/>
</linearGradient>
<linearGradient id="paint6_linear_172_2322" x1="46.6724" y1="0.731877" x2="46.6724" y2="47.8893" gradientUnits="userSpaceOnUse">
<stop stop-color="#35D2E2"/>
<stop offset="0.3" stop-color="#3B57EE"/>
<stop offset="0.7" stop-color="#752CE8"/>
<stop offset="1" stop-color="#EC8481"/>
</linearGradient>
<clipPath id="clip0_172_2322">
<rect width="143" height="46" fill="white" transform="translate(0.5)"/>
</clipPath>
</defs>
</svg>
