<svg width="199" height="218" viewBox="0 0 199 218" fill="none" xmlns="http://www.w3.org/2000/svg">
<path opacity="0.24" d="M90.2186 23.7997C100.329 23.7997 110.34 25.7911 119.681 29.6601C129.021 33.5291 137.508 39.2 144.657 46.349C151.806 53.4981 157.477 61.9852 161.346 71.3258C165.215 80.6664 167.207 90.6776 167.207 100.788C167.207 110.898 165.215 120.909 161.346 130.25C157.477 139.591 151.806 148.078 144.657 155.227C137.508 162.376 129.021 168.047 119.681 171.916C110.34 175.785 100.329 177.776 90.2186 177.776C80.1084 177.776 70.0971 175.785 60.7565 171.916C51.4159 168.047 42.9288 162.376 35.7798 155.227C28.6308 148.078 22.9598 139.591 19.0908 130.25C15.2218 120.909 13.2305 110.898 13.2305 100.788C13.2305 90.6776 15.2218 80.6664 19.0908 71.3258C22.9599 61.9852 28.6308 53.4981 35.7798 46.349C42.9288 39.2 51.4159 33.5291 60.7565 29.6601C70.0971 25.7911 80.1084 23.7997 90.2186 23.7997L90.2186 23.7997Z" stroke="white" stroke-width="8"/>
<g filter="url(#filter0_d_1693_8487)">
<path d="M90 22C103.203 22 116.196 25.3093 127.791 31.6254C139.386 37.9415 149.213 47.063 156.373 58.1561C163.534 69.2492 167.8 81.9601 168.781 95.127C169.763 108.294 167.429 121.497 161.992 133.529C156.555 145.561 148.19 156.039 137.66 164.004C127.13 171.97 114.771 177.169 101.713 179.127C88.6559 181.084 75.316 179.738 62.9129 175.211C50.5098 170.684 39.4392 163.12 30.713 153.212" stroke="#752CE8" stroke-width="12" stroke-linecap="round"/>
</g>
<defs>
<filter id="filter0_d_1693_8487" x="0.714844" y="0" width="198.285" height="218" filterUnits="userSpaceOnUse" color-interpolation-filters="sRGB">
<feFlood flood-opacity="0" result="BackgroundImageFix"/>
<feColorMatrix in="SourceAlpha" type="matrix" values="0 0 0 0 0 0 0 0 0 0 0 0 0 0 0 0 0 0 127 0" result="hardAlpha"/>
<feOffset dy="8"/>
<feGaussianBlur stdDeviation="12"/>
<feComposite in2="hardAlpha" operator="out"/>
<feColorMatrix type="matrix" values="0 0 0 0 0.509804 0 0 0 0 0.2 0 0 0 0 1 0 0 0 0.24 0"/>
<feBlend mode="normal" in2="BackgroundImageFix" result="effect1_dropShadow_1693_8487"/>
<feBlend mode="normal" in="SourceGraphic" in2="effect1_dropShadow_1693_8487" result="shape"/>
</filter>
</defs>
</svg>
