<svg width="16" height="16" viewBox="0 0 16 16" fill="none" xmlns="http://www.w3.org/2000/svg">
<path d="M2.82232 12.251C2.83791 12.3167 2.86663 12.3786 2.90676 12.433C2.94689 12.4873 2.9976 12.533 3.05583 12.5672C3.11407 12.6014 3.17862 12.6235 3.24562 12.6322C3.31261 12.6408 3.38066 12.6358 3.44567 12.6174C6.42624 11.7945 9.57406 11.7942 12.5548 12.6166C12.6198 12.6349 12.6878 12.6399 12.7548 12.6313C12.8217 12.6226 12.8863 12.6005 12.9445 12.5663C13.0027 12.5321 13.0534 12.4865 13.0935 12.4322C13.1337 12.3779 13.1624 12.316 13.178 12.2503L14.771 5.48053C14.7924 5.3899 14.788 5.29512 14.7583 5.20686C14.7287 5.1186 14.675 5.04036 14.6033 4.98096C14.5316 4.92157 14.4448 4.88337 14.3525 4.87067C14.2603 4.85797 14.1664 4.87128 14.0813 4.90909L10.9198 6.3142C10.8056 6.36494 10.6766 6.3711 10.5581 6.33148C10.4397 6.29186 10.3403 6.20932 10.2796 6.10012L8.43886 2.78672C8.39556 2.70877 8.3322 2.64383 8.25535 2.59861C8.1785 2.55339 8.09095 2.52954 8.00178 2.52954C7.91262 2.52954 7.82507 2.55339 7.74822 2.59861C7.67137 2.64383 7.60801 2.70877 7.5647 2.78672L5.72393 6.10012C5.66326 6.20932 5.56391 6.29186 5.44544 6.33148C5.32696 6.3711 5.19794 6.36494 5.08379 6.3142L1.92182 4.90888C1.83676 4.87108 1.74283 4.85777 1.65061 4.87045C1.55839 4.88314 1.47155 4.92132 1.39985 4.98069C1.32816 5.04006 1.27446 5.11826 1.2448 5.2065C1.21515 5.29473 1.21071 5.3895 1.232 5.48012L2.82232 12.251Z" stroke="white" stroke-width="1.5" stroke-linecap="round" stroke-linejoin="round"/>
<path d="M6 10.1049C7.32967 9.96503 8.67034 9.96503 10 10.1049" stroke="white" stroke-width="1.5" stroke-linecap="round" stroke-linejoin="round"/>
</svg>
