<svg width="49" height="48" viewBox="0 0 49 48" fill="none" xmlns="http://www.w3.org/2000/svg">
<path d="M20.156 20.297C18.788 20.297 17.708 21.447 17.708 22.85C17.708 24.253 18.812 25.403 20.156 25.403C21.524 25.403 22.604 24.253 22.604 22.85C22.628 21.447 21.524 20.297 20.156 20.297ZM28.916 20.297C27.548 20.297 26.468 21.447 26.468 22.85C26.468 24.253 27.572 25.403 28.916 25.403C30.284 25.403 31.364 24.253 31.364 22.85C31.364 21.447 30.284 20.297 28.916 20.297Z" fill="url(#paint0_linear_940_13843)"/>
<path d="M40.58 1H8.42C5.708 1 3.5 3.116 3.5 5.738V36.834C3.5 39.456 5.708 41.572 8.42 41.572H35.636L34.364 37.317L37.436 40.054L40.34 42.63L45.5 47V5.738C45.5 3.116 43.292 1 40.58 1ZM31.316 31.038C31.316 31.038 30.452 30.049 29.732 29.175C32.876 28.324 34.076 26.438 34.076 26.438C33.092 27.059 32.156 27.496 31.316 27.795C30.116 28.278 28.964 28.6 27.836 28.784C25.532 29.198 23.42 29.083 21.62 28.761C20.252 28.508 19.076 28.14 18.092 27.772C17.54 27.565 16.94 27.312 16.34 26.99C16.268 26.944 16.196 26.921 16.124 26.875C16.076 26.852 16.052 26.829 16.028 26.806C15.596 26.576 15.356 26.415 15.356 26.415C15.356 26.415 16.508 28.255 19.556 29.129C18.836 30.003 17.948 31.038 17.948 31.038C12.644 30.877 10.628 27.542 10.628 27.542C10.628 20.136 14.084 14.133 14.084 14.133C17.54 11.649 20.828 11.718 20.828 11.718L21.068 11.994C16.748 13.19 14.756 15.007 14.756 15.007C14.756 15.007 15.284 14.731 16.172 14.34C18.74 13.259 20.78 12.96 21.62 12.891C21.764 12.868 21.884 12.845 22.028 12.845C23.492 12.661 25.148 12.615 26.876 12.799C29.156 13.052 31.604 13.696 34.1 15.007C34.1 15.007 32.204 13.282 28.124 12.086L28.46 11.718C28.46 11.718 31.748 11.649 35.204 14.133C35.204 14.133 38.66 20.136 38.66 27.542C38.66 27.542 36.62 30.877 31.316 31.038Z" fill="url(#paint1_linear_940_13843)"/>
<defs>
<linearGradient id="paint0_linear_940_13843" x1="3.5" y1="47" x2="51.526" y2="8.52106" gradientUnits="userSpaceOnUse">
<stop stop-color="#FF817D"/>
<stop offset="0.463542" stop-color="#8233FF"/>
<stop offset="0.630208" stop-color="#3857FD"/>
<stop offset="1" stop-color="#22DEF1"/>
</linearGradient>
<linearGradient id="paint1_linear_940_13843" x1="3.5" y1="47" x2="51.526" y2="8.52106" gradientUnits="userSpaceOnUse">
<stop stop-color="#FF817D"/>
<stop offset="0.463542" stop-color="#8233FF"/>
<stop offset="0.630208" stop-color="#3857FD"/>
<stop offset="1" stop-color="#22DEF1"/>
</linearGradient>
</defs>
</svg>
