<svg width="20" height="20" viewBox="0 0 20 20" fill="none" xmlns="http://www.w3.org/2000/svg">
<path d="M11.875 8.4375H14.375" stroke="white" stroke-width="1.5" stroke-linecap="round" stroke-linejoin="round"/>
<path d="M5.625 8.4375H8.125" stroke="white" stroke-width="1.5" stroke-linecap="round" stroke-linejoin="round"/>
<path d="M6.875 7.1875V9.6875" stroke="white" stroke-width="1.5" stroke-linecap="round" stroke-linejoin="round"/>
<path d="M13.4385 4.35461L6.56246 4.37494C5.60732 4.37501 4.68273 4.71152 3.95099 5.3254C3.21925 5.93928 2.72713 6.79129 2.56101 7.73187L2.56168 7.732L1.28321 14.3072C1.20246 14.7654 1.26986 15.2373 1.47564 15.6546C1.68141 16.0718 2.01483 16.4126 2.42748 16.6274C2.84013 16.8422 3.31052 16.9199 3.77032 16.8492C4.23013 16.7784 4.65541 16.5629 4.9844 16.234L4.98427 16.2339L8.36205 12.4999L13.4385 12.4796C14.516 12.4796 15.5493 12.0516 16.3112 11.2897C17.073 10.5279 17.501 9.49456 17.501 8.41711C17.501 7.33967 17.073 6.30636 16.3112 5.54449C15.5493 4.78263 14.516 4.35461 13.4385 4.35461V4.35461Z" stroke="white" stroke-width="1.5" stroke-linecap="round" stroke-linejoin="round"/>
<path d="M17.4397 7.71167L18.7171 14.3072C18.7979 14.7654 18.7305 15.2373 18.5247 15.6546C18.3189 16.0718 17.9855 16.4126 17.5729 16.6274C17.1602 16.8422 16.6898 16.9199 16.23 16.8492C15.7702 16.7784 15.3449 16.5629 15.0159 16.234L15.0161 16.2339L11.6406 12.4868" stroke="white" stroke-width="1.5" stroke-linecap="round" stroke-linejoin="round"/>
</svg>
