<svg width="24" height="24" viewBox="0 0 24 24" fill="none" xmlns="http://www.w3.org/2000/svg">
<path d="M22.5673 11.4172L20.25 12.5759L17.25 6.83067L19.5909 5.66024C19.7667 5.5723 19.9701 5.55695 20.1572 5.61749C20.3443 5.67802 20.5001 5.80961 20.5911 5.9839L22.8967 10.3992C22.9428 10.4875 22.9708 10.5841 22.9792 10.6834C22.9876 10.7826 22.9761 10.8825 22.9454 10.9773C22.9148 11.0721 22.8655 11.1598 22.8006 11.2353C22.7357 11.3108 22.6564 11.3727 22.5673 11.4172V11.4172Z" stroke="white" stroke-width="1.5" stroke-linecap="round" stroke-linejoin="round"/>
<path d="M3.7514 12.4755L1.43412 11.3169C1.34504 11.2723 1.26571 11.2105 1.20079 11.135C1.13586 11.0594 1.08663 10.9717 1.05596 10.877C1.0253 10.7822 1.01381 10.6823 1.02218 10.583C1.03055 10.4838 1.05861 10.3872 1.10471 10.2989L3.4103 5.88357C3.50131 5.70927 3.65713 5.57768 3.84421 5.51714C4.03129 5.45661 4.23466 5.47196 4.41053 5.55989L6.7514 6.73033L3.7514 12.4755Z" stroke="white" stroke-width="1.5" stroke-linecap="round" stroke-linejoin="round"/>
<path d="M20.25 12.5761L18.75 14.3309L15.3003 17.7806C15.2087 17.8722 15.095 17.9385 14.9701 17.9731C14.8453 18.0076 14.7137 18.0093 14.588 17.9779L9.15458 16.6195C9.05266 16.594 8.95724 16.5474 8.87448 16.4827L3.75 12.4756" stroke="white" stroke-width="1.5" stroke-linecap="round" stroke-linejoin="round"/>
<path d="M18.7488 14.3308L14.6238 11.3308L13.4238 12.2308C12.9045 12.6203 12.2729 12.8308 11.6238 12.8308C10.9747 12.8308 10.3431 12.6203 9.82382 12.2308L9.31562 11.8497C9.22966 11.7852 9.15856 11.703 9.10712 11.6087C9.05569 11.5143 9.02513 11.41 9.01751 11.3028C9.00989 11.1956 9.0254 11.0881 9.06297 10.9874C9.10055 10.8867 9.15931 10.7953 9.2353 10.7193L12.9041 7.05048C12.9738 6.98084 13.0565 6.92559 13.1475 6.8879C13.2385 6.85021 13.336 6.83081 13.4345 6.83081H17.2488" stroke="white" stroke-width="1.5" stroke-linecap="round" stroke-linejoin="round"/>
<path d="M6.80469 6.73022L11.6159 5.32758C11.7878 5.27748 11.9719 5.2905 12.135 5.3643L15.3758 6.83071" stroke="white" stroke-width="1.5" stroke-linecap="round" stroke-linejoin="round"/>
<path d="M10.5 19.9558L7.67443 19.2494C7.55977 19.2207 7.4535 19.1654 7.3643 19.0878L5.25 17.25" stroke="white" stroke-width="1.5" stroke-linecap="round" stroke-linejoin="round"/>
</svg>
