<svg width="16" height="16" viewBox="0 0 16 16" fill="none" xmlns="http://www.w3.org/2000/svg">
<path d="M13.0524 4.5H2.94748C2.82443 4.5 2.70571 4.54537 2.61402 4.62744C2.52234 4.7095 2.46413 4.82249 2.45054 4.94478L1.56165 12.9448C1.55389 13.0147 1.56095 13.0854 1.58238 13.1524C1.60381 13.2194 1.63913 13.2811 1.68603 13.3335C1.73293 13.3859 1.79035 13.4278 1.85455 13.4565C1.91875 13.4852 1.98827 13.5 2.05859 13.5H13.9413C14.0116 13.5 14.0812 13.4852 14.1454 13.4565C14.2096 13.4278 14.267 13.3859 14.3139 13.3335C14.3608 13.2811 14.3961 13.2194 14.4175 13.1524C14.439 13.0854 14.446 13.0147 14.4383 12.9448L13.5494 4.94478C13.5358 4.82249 13.4776 4.7095 13.3859 4.62744C13.2942 4.54537 13.1755 4.5 13.0524 4.5Z" stroke="white" stroke-width="1.5" stroke-linecap="round" stroke-linejoin="round"/>
<path d="M5.5 6.5V4.5C5.5 3.83696 5.76339 3.20107 6.23223 2.73223C6.70107 2.26339 7.33696 2 8 2C8.66304 2 9.29893 2.26339 9.76777 2.73223C10.2366 3.20107 10.5 3.83696 10.5 4.5V6.5" stroke="white" stroke-width="1.5" stroke-linecap="round" stroke-linejoin="round"/>
</svg>
