<svg width="16" height="16" viewBox="0 0 16 16" fill="none" xmlns="http://www.w3.org/2000/svg">
<path d="M11 7.5C11 8.29565 10.6839 9.05871 10.1213 9.62132C9.55871 10.1839 8.79565 10.5 8 10.5" stroke="white" stroke-width="1.5" stroke-linecap="round" stroke-linejoin="round"/>
<path d="M3.99997 12.4722C5.13015 13.4859 6.60361 14.0316 8.12142 13.9988C11.3389 13.9352 13.9546 11.3032 13.9994 8.08544C14.0107 7.2904 13.8639 6.50104 13.5675 5.76324C13.2711 5.02543 12.831 4.3539 12.2727 3.78768C11.7145 3.22145 11.0493 2.77183 10.3158 2.46493C9.58231 2.15804 8.79512 2 8 2H7.5V4L1 8L1.86169 9.19475C2.02602 9.42226 2.25082 9.59917 2.51059 9.70539C2.77036 9.81161 3.0547 9.8429 3.33135 9.79572C4.42308 9.6109 6.33516 9.50109 8.00001 10.5L8 10.5L5.79787 13.583" stroke="white" stroke-width="1.5" stroke-linecap="round" stroke-linejoin="round"/>
<path d="M7.75 7C8.16421 7 8.5 6.66421 8.5 6.25C8.5 5.83579 8.16421 5.5 7.75 5.5C7.33579 5.5 7 5.83579 7 6.25C7 6.66421 7.33579 7 7.75 7Z" fill="white"/>
</svg>
