<svg width="20" height="20" viewBox="0 0 20 20" fill="none" xmlns="http://www.w3.org/2000/svg">
<path d="M8.125 10H16.8749" stroke="white" stroke-width="1.5" stroke-linecap="round" stroke-linejoin="round"/>
<path d="M8.125 5H16.8749" stroke="white" stroke-width="1.5" stroke-linecap="round" stroke-linejoin="round"/>
<path d="M8.125 15H16.875" stroke="white" stroke-width="1.5" stroke-linecap="round" stroke-linejoin="round"/>
<path d="M3.125 4.6875L4.375 4.0625V8.43703" stroke="white" stroke-width="1.5" stroke-linecap="round" stroke-linejoin="round"/>
<path d="M3.21095 11.918C3.27034 11.7775 3.35846 11.6509 3.46966 11.5465C3.58086 11.4421 3.71267 11.362 3.85663 11.3116C4.00059 11.2611 4.15351 11.2413 4.30558 11.2534C4.45765 11.2655 4.6055 11.3093 4.73964 11.382C4.87377 11.4547 4.99123 11.5546 5.08446 11.6753C5.17768 11.7961 5.24463 11.935 5.28098 12.0832C5.31734 12.2313 5.32231 12.3854 5.29557 12.5356C5.26882 12.6858 5.21096 12.8288 5.1257 12.9553L3.125 15.625H5.3125" stroke="white" stroke-width="1.5" stroke-linecap="round" stroke-linejoin="round"/>
</svg>
