<svg width="20" height="20" viewBox="0 0 20 20" fill="none" xmlns="http://www.w3.org/2000/svg">
<path d="M7.24112 16.875H3.75C3.58424 16.875 3.42527 16.8092 3.30806 16.692C3.19085 16.5748 3.125 16.4158 3.125 16.25V12.7589C3.125 12.6768 3.14117 12.5956 3.17258 12.5197C3.20398 12.4439 3.25002 12.375 3.30806 12.317L12.6831 2.94197C12.8003 2.82476 12.9592 2.75891 13.125 2.75891C13.2908 2.75891 13.4497 2.82476 13.5669 2.94197L17.0581 6.43309C17.1753 6.5503 17.2411 6.70927 17.2411 6.87503C17.2411 7.04079 17.1753 7.19976 17.0581 7.31697L7.68306 16.692C7.62502 16.75 7.55612 16.796 7.48029 16.8275C7.40447 16.8589 7.32319 16.875 7.24112 16.875Z" stroke="white" stroke-width="1.5" stroke-linecap="round" stroke-linejoin="round"/>
<path d="M10.625 5L15 9.375" stroke="white" stroke-width="1.5" stroke-linecap="round" stroke-linejoin="round"/>
<path d="M7.45938 16.835L3.16406 12.5397" stroke="white" stroke-width="1.5" stroke-linecap="round" stroke-linejoin="round"/>
</svg>
