<svg width="20" height="20" viewBox="0 0 20 20" fill="none" xmlns="http://www.w3.org/2000/svg">
<path d="M5.95312 10.3282L11.8906 3.1407L16.8749 3.125L16.8592 8.1093L9.67172 14.0468" stroke="white" stroke-width="1.5" stroke-linecap="round" stroke-linejoin="round"/>
<path d="M7.8125 12.1875L12.5 7.5" stroke="white" stroke-width="1.5" stroke-linecap="round" stroke-linejoin="round"/>
<path d="M6.41658 15.4263L4.07743 17.7654C4.0194 17.8235 3.9505 17.8695 3.87467 17.9009C3.79884 17.9323 3.71757 17.9485 3.63549 17.9485C3.55342 17.9485 3.47214 17.9323 3.39631 17.9009C3.32049 17.8695 3.25159 17.8235 3.19355 17.7654L2.23384 16.8057C2.1758 16.7477 2.12977 16.6788 2.09836 16.6029C2.06695 16.5271 2.05078 16.4458 2.05078 16.3638C2.05078 16.2817 2.06695 16.2004 2.09836 16.1246C2.12977 16.0488 2.1758 15.9799 2.23384 15.9218L4.57299 13.5827C4.63103 13.5246 4.67706 13.4557 4.70847 13.3799C4.73988 13.3041 4.75605 13.2228 4.75605 13.1407C4.75605 13.0587 4.73988 12.9774 4.70847 12.9016C4.67706 12.8257 4.63103 12.7568 4.57299 12.6988L2.94117 11.067C2.82396 10.9498 2.75811 10.7908 2.75811 10.625C2.75811 10.4593 2.82396 10.3003 2.94117 10.1831L3.93229 9.19197C4.0495 9.07476 4.20847 9.00891 4.37423 9.00891C4.53999 9.00891 4.69896 9.07476 4.81617 9.19197L10.8073 15.1831C10.9245 15.3003 10.9903 15.4593 10.9903 15.625C10.9903 15.7908 10.9245 15.9498 10.8073 16.067L9.81617 17.0581C9.69896 17.1753 9.53999 17.2411 9.37423 17.2411C9.20847 17.2411 9.0495 17.1753 8.93229 17.0581L7.30047 15.4263C7.18326 15.3091 7.02429 15.2432 6.85853 15.2432C6.69277 15.2432 6.53379 15.3091 6.41658 15.4263V15.4263Z" stroke="white" stroke-width="1.5" stroke-linecap="round" stroke-linejoin="round"/>
</svg>
