<svg width="16" height="16" viewBox="0 0 16 16" fill="none" xmlns="http://www.w3.org/2000/svg">
<path d="M2 3H5V9.5H2C1.86739 9.5 1.74021 9.44732 1.64645 9.35355C1.55268 9.25979 1.5 9.13261 1.5 9V3.5C1.5 3.36739 1.55268 3.24021 1.64645 3.14645C1.74021 3.05268 1.86739 3 2 3V3Z" stroke="white" stroke-width="1.5" stroke-linecap="round" stroke-linejoin="round"/>
<path d="M5 9.5L7.5 14.5C7.76264 14.5 8.02272 14.4483 8.26537 14.3478C8.50802 14.2472 8.7285 14.0999 8.91421 13.9142C9.09993 13.7285 9.24725 13.508 9.34776 13.2654C9.44827 13.0227 9.5 12.7626 9.5 12.5V11H13.3672C13.509 11 13.6492 10.9698 13.7784 10.9115C13.9077 10.8532 14.0231 10.7681 14.1169 10.6618C14.2107 10.5555 14.2809 10.4305 14.3227 10.295C14.3645 10.1595 14.3771 10.0167 14.3595 9.87597L13.6095 3.87597C13.5793 3.63411 13.4617 3.41163 13.279 3.25032C13.0963 3.08902 12.861 3 12.6172 3H5" stroke="white" stroke-width="1.5" stroke-linecap="round" stroke-linejoin="round"/>
</svg>
