<svg width="16" height="16" viewBox="0 0 16 16" fill="none" xmlns="http://www.w3.org/2000/svg">
<path d="M2 6.5H5V13H2C1.86739 13 1.74021 12.9473 1.64645 12.8536C1.55268 12.7598 1.5 12.6326 1.5 12.5V7C1.5 6.86739 1.55268 6.74021 1.64645 6.64645C1.74021 6.55268 1.86739 6.5 2 6.5V6.5Z" stroke="white" stroke-width="1.5" stroke-linecap="round" stroke-linejoin="round"/>
<path d="M5 6.5L7.5 1.5C7.76264 1.5 8.02272 1.55173 8.26537 1.65224C8.50802 1.75275 8.7285 1.90007 8.91421 2.08579C9.09993 2.2715 9.24725 2.49198 9.34776 2.73463C9.44827 2.97728 9.5 3.23736 9.5 3.5V5H13.3672C13.509 5 13.6492 5.03015 13.7784 5.08846C13.9077 5.14677 14.0231 5.2319 14.1169 5.3382C14.2107 5.4445 14.2809 5.56954 14.3227 5.70502C14.3645 5.84051 14.3771 5.98334 14.3595 6.12403L13.6095 12.124C13.5793 12.3659 13.4617 12.5884 13.279 12.7497C13.0963 12.911 12.861 13 12.6172 13H5" stroke="white" stroke-width="1.5" stroke-linecap="round" stroke-linejoin="round"/>
</svg>
