<svg width="512" height="195" viewBox="0 0 512 195" fill="none" xmlns="http://www.w3.org/2000/svg">
<g filter="url(#filter0_ii_171_2117)">
<rect width="512" height="195" rx="30" fill="url(#paint0_linear_171_2117)"/>
</g>
<rect x="12.5" y="12.4999" width="487" height="170" rx="21.5" fill="#070123" stroke="#070123" stroke-width="3"/>
<g opacity="0.4" filter="url(#filter1_i_171_2117)">
<path fill-rule="evenodd" clip-rule="evenodd" d="M34 13.9999C22.9543 13.9999 14 22.9542 14 33.9999V38.0487C14 27.003 22.9543 18.0487 34 18.0487H478C489.046 18.0487 498 27.003 498 38.0487V33.9999C498 22.9542 489.046 13.9999 478 13.9999H34ZM14 161V161C14 172.046 22.9543 181 34 181H478C484.904 181 490.99 177.502 494.584 172.182C490.99 177.502 484.903 181 478 181H34C22.9543 181 14 172.046 14 161Z" fill="url(#paint1_linear_171_2117)" fill-opacity="0.8"/>
</g>
<g opacity="0.4" filter="url(#filter2_i_171_2117)">
<path fill-rule="evenodd" clip-rule="evenodd" d="M478 181C489.046 181 498 172.046 498 161V156.963C498 156.959 498 156.955 498 156.951V33.9997C498 22.954 489.046 13.9997 478 13.9997H34.0002C27.0965 13.9997 21.01 17.4977 17.4159 22.8178C21.01 17.4978 27.0966 14 34.0002 14H478C489.046 14 498 22.9543 498 34V156.963C497.994 168.003 489.042 176.951 478 176.951H34.0002C22.9545 176.951 14.0002 167.997 14.0002 156.951V161C14.0002 172.046 22.9545 181 34.0002 181H478Z" fill="url(#paint2_linear_171_2117)" fill-opacity="0.8"/>
</g>
<defs>
<filter id="filter0_ii_171_2117" x="0" y="-4" width="512" height="203" filterUnits="userSpaceOnUse" color-interpolation-filters="sRGB">
<feFlood flood-opacity="0" result="BackgroundImageFix"/>
<feBlend mode="normal" in="SourceGraphic" in2="BackgroundImageFix" result="shape"/>
<feColorMatrix in="SourceAlpha" type="matrix" values="0 0 0 0 0 0 0 0 0 0 0 0 0 0 0 0 0 0 127 0" result="hardAlpha"/>
<feOffset dy="-4"/>
<feGaussianBlur stdDeviation="5"/>
<feComposite in2="hardAlpha" operator="arithmetic" k2="-1" k3="1"/>
<feColorMatrix type="matrix" values="0 0 0 0 0 0 0 0 0 0 0 0 0 0 0 0 0 0 0.25 0"/>
<feBlend mode="normal" in2="shape" result="effect1_innerShadow_171_2117"/>
<feColorMatrix in="SourceAlpha" type="matrix" values="0 0 0 0 0 0 0 0 0 0 0 0 0 0 0 0 0 0 127 0" result="hardAlpha"/>
<feOffset dy="4"/>
<feGaussianBlur stdDeviation="2"/>
<feComposite in2="hardAlpha" operator="arithmetic" k2="-1" k3="1"/>
<feColorMatrix type="matrix" values="0 0 0 0 1 0 0 0 0 1 0 0 0 0 1 0 0 0 0.25 0"/>
<feBlend mode="normal" in2="effect1_innerShadow_171_2117" result="effect2_innerShadow_171_2117"/>
</filter>
<filter id="filter1_i_171_2117" x="14" y="13.9999" width="485" height="167" filterUnits="userSpaceOnUse" color-interpolation-filters="sRGB">
<feFlood flood-opacity="0" result="BackgroundImageFix"/>
<feBlend mode="normal" in="SourceGraphic" in2="BackgroundImageFix" result="shape"/>
<feColorMatrix in="SourceAlpha" type="matrix" values="0 0 0 0 0 0 0 0 0 0 0 0 0 0 0 0 0 0 127 0" result="hardAlpha"/>
<feOffset dx="1"/>
<feGaussianBlur stdDeviation="1.5"/>
<feComposite in2="hardAlpha" operator="arithmetic" k2="-1" k3="1"/>
<feColorMatrix type="matrix" values="0 0 0 0 1 0 0 0 0 1 0 0 0 0 1 0 0 0 0.09 0"/>
<feBlend mode="normal" in2="shape" result="effect1_innerShadow_171_2117"/>
</filter>
<filter id="filter2_i_171_2117" x="14" y="13.9996" width="485" height="167" filterUnits="userSpaceOnUse" color-interpolation-filters="sRGB">
<feFlood flood-opacity="0" result="BackgroundImageFix"/>
<feBlend mode="normal" in="SourceGraphic" in2="BackgroundImageFix" result="shape"/>
<feColorMatrix in="SourceAlpha" type="matrix" values="0 0 0 0 0 0 0 0 0 0 0 0 0 0 0 0 0 0 127 0" result="hardAlpha"/>
<feOffset dx="1"/>
<feGaussianBlur stdDeviation="1.5"/>
<feComposite in2="hardAlpha" operator="arithmetic" k2="-1" k3="1"/>
<feColorMatrix type="matrix" values="0 0 0 0 1 0 0 0 0 1 0 0 0 0 1 0 0 0 0.09 0"/>
<feBlend mode="normal" in2="shape" result="effect1_innerShadow_171_2117"/>
</filter>
<linearGradient id="paint0_linear_171_2117" x1="9.53674e-06" y1="195" x2="152.377" y2="-156.083" gradientUnits="userSpaceOnUse">
<stop stop-color="#FF817D"/>
<stop offset="0.463542" stop-color="#8233FF"/>
<stop offset="0.630208" stop-color="#3857FD"/>
<stop offset="1" stop-color="#22DEF1"/>
</linearGradient>
<linearGradient id="paint1_linear_171_2117" x1="256.609" y1="13.9999" x2="256.609" y2="97.5" gradientUnits="userSpaceOnUse">
<stop stop-color="white" stop-opacity="0.6"/>
<stop offset="1" stop-color="white" stop-opacity="0.01"/>
</linearGradient>
<linearGradient id="paint2_linear_171_2117" x1="255.391" y1="181" x2="255.391" y2="97.4998" gradientUnits="userSpaceOnUse">
<stop stop-color="white" stop-opacity="0.6"/>
<stop offset="1" stop-color="white" stop-opacity="0.01"/>
</linearGradient>
</defs>
</svg>
