<svg width="24" height="24" viewBox="0 0 24 24" fill="none" xmlns="http://www.w3.org/2000/svg">
<path d="M24 5.19231C23.1 5.63077 22.2 5.77692 21.15 5.92308C22.2 5.33846 22.95 4.46154 23.25 3.29231C22.35 3.87692 21.3 4.16923 20.1 4.46154C19.2 3.58462 17.85 3 16.5 3C13.35 3 10.95 5.92308 11.7 8.84615C7.65 8.7 4.05 6.8 1.5 3.87692C0.15 6.06923 0.9 8.84615 3 10.3077C2.25 10.3077 1.5 10.0154 0.75 9.72308C0.75 11.9154 2.4 13.9615 4.65 14.5462C3.9 14.6923 3.15 14.8385 2.4 14.6923C3 16.5923 4.8 18.0538 7.05 18.0538C5.25 19.3692 2.55 20.1 0 19.8077C2.25 21.1231 4.8 22 7.5 22C16.65 22 21.75 14.5462 21.45 7.67692C22.5 7.09231 23.4 6.21538 24 5.19231Z" fill="#3B57EE"/>
</svg>
