<svg width="20" height="20" viewBox="0 0 20 20" fill="none" xmlns="http://www.w3.org/2000/svg">
<rect width="20" height="20" rx="4" fill="#1D144B"/>
<path d="M6.875 12.5C9.11866 12.5 10.9375 10.6812 10.9375 8.4375C10.9375 6.19384 9.11866 4.375 6.875 4.375C4.63134 4.375 2.8125 6.19384 2.8125 8.4375C2.8125 10.6812 4.63134 12.5 6.875 12.5Z" stroke="white" stroke-width="1.5" stroke-miterlimit="10"/>
<path d="M12.1406 4.52628C12.6994 4.36885 13.2854 4.33299 13.8592 4.4211C14.433 4.50922 14.9812 4.71928 15.467 5.03713C15.9528 5.35497 16.3648 5.77323 16.6753 6.26372C16.9859 6.75421 17.1877 7.30555 17.2672 7.8806C17.3467 8.45565 17.302 9.04106 17.1362 9.5974C16.9704 10.1537 16.6873 10.6681 16.306 11.1058C15.9247 11.5435 15.454 11.8944 14.9256 12.1349C14.3972 12.3754 13.8235 12.4999 13.2429 12.5" stroke="white" stroke-width="1.5" stroke-linecap="round" stroke-linejoin="round"/>
<path d="M1.25 15.4216C1.88448 14.5191 2.72679 13.7825 3.70582 13.274C4.68485 12.7655 5.77186 12.5 6.87506 12.5C7.97827 12.5 9.0653 12.7654 10.0444 13.2738C11.0234 13.7822 11.8658 14.5187 12.5004 15.4212" stroke="white" stroke-width="1.5" stroke-linecap="round" stroke-linejoin="round"/>
<path d="M13.2422 12.5C14.3455 12.4992 15.4328 12.7643 16.4119 13.2728C17.3911 13.7813 18.2333 14.5182 18.8672 15.4212" stroke="white" stroke-width="1.5" stroke-linecap="round" stroke-linejoin="round"/>
</svg>
