<svg width="36" height="36" viewBox="0 0 36 36" fill="none" xmlns="http://www.w3.org/2000/svg">
<path d="M9.49754 12.5987C14.1942 8.0003 21.8089 8.0003 26.5057 12.5987L27.0709 13.1521C27.3057 13.3821 27.3057 13.7548 27.0709 13.9848L25.1373 15.8779C25.0198 15.9929 24.8295 15.9929 24.712 15.8779L23.9342 15.1164C20.6577 11.9084 15.3454 11.9084 12.0689 15.1164L11.2359 15.9319C11.1185 16.0469 10.9282 16.0469 10.8107 15.9319L8.87714 14.0388C8.64224 13.8088 8.64224 13.4361 8.87714 13.2061L9.49754 12.5987ZM30.5045 16.514L32.2255 18.1989C32.4603 18.4288 32.4603 18.8016 32.2255 19.0315L24.4657 26.6291C24.2309 26.859 23.8501 26.859 23.6153 26.6291L18.1079 21.2369C18.0492 21.1794 17.954 21.1794 17.8953 21.2369L12.388 26.6291C12.1532 26.859 11.7724 26.859 11.5376 26.6291L3.77769 19.0315C3.54285 18.8015 3.54285 18.4288 3.77769 18.1988L5.49861 16.5139C5.73344 16.284 6.11418 16.284 6.34902 16.5139L11.8565 21.9061C11.9152 21.9637 12.0103 21.9637 12.0691 21.9061L17.5762 16.5139C17.8111 16.284 18.1918 16.284 18.4267 16.5139L23.9341 21.9061C23.9929 21.9637 24.088 21.9637 24.1468 21.9061L29.6541 16.514C29.889 16.2841 30.2697 16.2841 30.5045 16.514Z" fill="#3396FF"/>
</svg>
