<svg width="32" height="32" viewBox="0 0 32 32" fill="none" xmlns="http://www.w3.org/2000/svg">
<g clip-path="url(#clip0_171_2314)">
<path d="M12.9658 13.424C12.0103 13.424 11.2561 14.224 11.2561 15.2C11.2561 16.176 12.0271 16.976 12.9658 16.976C13.9212 16.976 14.6755 16.176 14.6755 15.2C14.6922 14.224 13.9212 13.424 12.9658 13.424ZM19.0839 13.424C18.1284 13.424 17.3742 14.224 17.3742 15.2C17.3742 16.176 18.1452 16.976 19.0839 16.976C20.0393 16.976 20.7936 16.176 20.7936 15.2C20.7936 14.224 20.0393 13.424 19.0839 13.424Z" fill="white"/>
<path d="M27.2302 0H4.7692C2.8751 0 1.33301 1.472 1.33301 3.296V24.928C1.33301 26.752 2.8751 28.224 4.7692 28.224H23.7772L22.8888 25.264L25.0343 27.168L27.0625 28.96L30.6663 32V3.296C30.6663 1.472 29.1242 0 27.2302 0ZM20.7601 20.896C20.7601 20.896 20.1566 20.208 19.6538 19.6C21.8496 19.008 22.6877 17.696 22.6877 17.696C22.0004 18.128 21.3467 18.432 20.7601 18.64C19.922 18.976 19.1174 19.2 18.3296 19.328C16.7204 19.616 15.2454 19.536 13.9882 19.312C13.0328 19.136 12.2115 18.88 11.5242 18.624C11.1387 18.48 10.7197 18.304 10.3006 18.08C10.2503 18.048 10.2001 18.032 10.1498 18C10.1162 17.984 10.0995 17.968 10.0827 17.952C9.78101 17.792 9.61339 17.68 9.61339 17.68C9.61339 17.68 10.418 18.96 12.5467 19.568C12.0439 20.176 11.4237 20.896 11.4237 20.896C7.71929 20.784 6.31129 18.464 6.31129 18.464C6.31129 13.312 8.72501 9.136 8.72501 9.136C11.1387 7.408 13.4351 7.456 13.4351 7.456L13.6027 7.648C10.5856 8.48 9.19434 9.744 9.19434 9.744C9.19434 9.744 9.5631 9.552 10.1833 9.28C11.9768 8.528 13.4016 8.32 13.9882 8.272C14.0888 8.256 14.1726 8.24 14.2732 8.24C15.2957 8.112 16.4522 8.08 17.6591 8.208C19.2515 8.384 20.9612 8.832 22.7044 9.744C22.7044 9.744 21.3802 8.544 18.5307 7.712L18.7654 7.456C18.7654 7.456 21.0618 7.408 23.4755 9.136C23.4755 9.136 25.8892 13.312 25.8892 18.464C25.8892 18.464 24.4644 20.784 20.7601 20.896Z" fill="white"/>
</g>
<defs>
<clipPath id="clip0_171_2314">
<rect width="32" height="32" fill="white"/>
</clipPath>
</defs>
</svg>
