<svg width="24" height="24" viewBox="0 0 24 24" fill="none" xmlns="http://www.w3.org/2000/svg">
<path d="M9.72457 10.068C9.008 10.068 8.44229 10.668 8.44229 11.4C8.44229 12.132 9.02057 12.732 9.72457 12.732C10.4411 12.732 11.0069 12.132 11.0069 11.4C11.0194 10.668 10.4411 10.068 9.72457 10.068ZM14.3131 10.068C13.5966 10.068 13.0309 10.668 13.0309 11.4C13.0309 12.132 13.6091 12.732 14.3131 12.732C15.0297 12.732 15.5954 12.132 15.5954 11.4C15.5954 10.668 15.0297 10.068 14.3131 10.068Z" fill="#3B57EE"/>
<path d="M20.4229 0H3.57714C2.15657 0 1 1.104 1 2.472V18.696C1 20.064 2.15657 21.168 3.57714 21.168H17.8331L17.1669 18.948L18.776 20.376L20.2971 21.72L23 24V2.472C23 1.104 21.8434 0 20.4229 0ZM15.5703 15.672C15.5703 15.672 15.1177 15.156 14.7406 14.7C16.3874 14.256 17.016 13.272 17.016 13.272C16.5006 13.596 16.0103 13.824 15.5703 13.98C14.9417 14.232 14.3383 14.4 13.7474 14.496C12.5406 14.712 11.4343 14.652 10.4914 14.484C9.77486 14.352 9.15886 14.16 8.64343 13.968C8.35429 13.86 8.04 13.728 7.72571 13.56C7.688 13.536 7.65029 13.524 7.61257 13.5C7.58743 13.488 7.57486 13.476 7.56229 13.464C7.336 13.344 7.21029 13.26 7.21029 13.26C7.21029 13.26 7.81371 14.22 9.41029 14.676C9.03314 15.132 8.568 15.672 8.568 15.672C5.78971 15.588 4.73371 13.848 4.73371 13.848C4.73371 9.984 6.544 6.852 6.544 6.852C8.35429 5.556 10.0766 5.592 10.0766 5.592L10.2023 5.736C7.93943 6.36 6.896 7.308 6.896 7.308C6.896 7.308 7.17257 7.164 7.63771 6.96C8.98286 6.396 10.0514 6.24 10.4914 6.204C10.5669 6.192 10.6297 6.18 10.7051 6.18C11.472 6.084 12.3394 6.06 13.2446 6.156C14.4389 6.288 15.7211 6.624 17.0286 7.308C17.0286 7.308 16.0354 6.408 13.8983 5.784L14.0743 5.592C14.0743 5.592 15.7966 5.556 17.6069 6.852C17.6069 6.852 19.4171 9.984 19.4171 13.848C19.4171 13.848 18.3486 15.588 15.5703 15.672Z" fill="#3B57EE"/>
</svg>
